<defs>
<font horiz-adv-x="1253" ><font-face
    font-family="caudex-bold"
    units-per-em="2048"
    panose-1="2 4 5 2 5 5 5 3 3 4"
    ascent="2034"
    descent="-606"
    alphabetic="0" />
<missing-glyph horiz-adv-x="772" d="M0 1404H772V0H0V1404ZM272 317T272 244V175Q272 102 364 102Q456 102 456 175V244Q456 317 364 317Q272 317 272 244ZM399 504L402 653Q403 713 420 744Q436 773 487 805Q508 819 524 829Q668 917 668 1059Q668 1172 593
1237Q517 1302 383 1302Q253 1302 179 1235Q104 1169 104 1054Q104 1028 118 1016Q132 1005 162 1005Q188 1005 206 1016Q221 1026 223 1046Q232 1162 264 1204Q295 1248 363 1248Q440 1248 480 1201Q518 1154 518 1059Q518 971 478 908Q436 844 331 771V505Q331
464 341 436Q349 411 364 411Q381 411 390 433Q399 455 399 504Z" />
<glyph unicode=" " glyph-name="space" horiz-adv-x="550" />
<glyph unicode="!" glyph-name="exclam" horiz-adv-x="550" d="M147 250T282 250T417 143V61Q417 -45 282 -45T147 61V143Q147 250 282 250ZM344 374Q344 331 294 331H273Q224 331 224 374L154 1329V1340Q154 1424 252 1424H315Q414 1424 414 1339V1329L344 374Z" />
<glyph unicode="&quot;" glyph-name="quotedbl" horiz-adv-x="849" d="M695 968Q695 937 651 937H636Q593 937 593 968L541 1408V1413Q541 1463 620 1463H667Q746 1463 746 1414V1408L695 968ZM272 968Q272 937 228 937H213Q170 937 170 968L118 1408V1413Q118
1463 197 1463H244Q323 1463 323 1414V1408L272 968Z" />
<glyph unicode="#" glyph-name="numbersign" horiz-adv-x="1100" d="M249 22L308 362H58Q20 362 20 390V394L35 480Q41 507 76 507H333L374 742H124Q86 742 86 770V774L101 860Q107 887 142 887H399L459 1233Q465 1267 497 1267H582Q615 1267 615 1238Q615 1233
614 1227L555 887H691L751 1233Q757 1267 790 1267H874Q908 1267 908 1238Q908 1233 907 1227L848 887H1097Q1136 887 1136 862Q1136 858 1135 854L1120 770Q1117 742 1079 742H823L782 507H1031Q1070 507 1070 482Q1070 478 1069 474L1054 390Q1051 362 1013 362H757L697
16Q691 -19 658 -19H574Q540 -19 540 12Q540 17 541 22L600 362H464L404 16Q398 -19 366 -19H281Q248 -19 248 12Q248 16 249 22ZM530 742L489 507H625L666 742H530Z" />
<glyph unicode="$" glyph-name="dollar" horiz-adv-x="1100" d="M857 388V399Q854 503 779 557Q744 582 668 604Q652 609 634 612V87Q665 96 702 114Q771 148 814 218Q857 287 857 388ZM634 1467Q844 1451 1005 1347L980 1126Q976 1090 936 1090H931Q901 1092
883 1131Q842 1217 766 1276Q703 1325 634 1336V837Q666 832 704 826Q768 816 852 790T982 712Q1028 662 1054 602T1081 459Q1081 237 900 89Q806 12 703 -21Q666 -33 634 -41V-143Q634 -186 585 -186H539Q492 -186 492 -143V-58Q465 -59 452 -59Q309 -59 165 -15L67
258Q64 266 64 278Q64 289 76 308T121 327Q148 320 165 285Q226 152 308 112Q385 75 492 73V636Q486 638 480 638Q368 650 269 698Q168 746 122 832T76 1018Q76 1213 216 1341Q329 1444 492 1464V1551Q492 1594 539 1594H585Q634 1594 634 1551V1467ZM492 1328Q470
1322 450 1313Q396 1287 370 1261Q346 1234 329 1200T304 1130Q297 1098 297 1069Q297 1065 297 1062Q297 1030 308 999Q327 938 367 909Q408 880 440 872Q465 865 492 860V1328Z" />
<glyph unicode="%" glyph-name="percent" horiz-adv-x="1300" d="M166 -52L1118 1440H1265L314 -52H166ZM264 1383Q187 1382 173 1317T159 1204V969Q159 922 174 856T253 790Q316 790 343 841T370 969V1204Q370 1279 345 1331T265 1383H264ZM266 1434Q371 1434
427 1369T483 1215V958Q483 868 420 804T253 739T98 804T46 958V1215Q46 1304 103 1369T266 1434ZM1064 623Q987 622 973 557T959 444V209Q959 162 974 96T1053 30Q1116 30 1143 81T1170 209V444Q1170 519 1145 571T1065 623H1064ZM1066 674Q1171 674 1227 609T1283
455V198Q1283 108 1220 44T1053 -21T898 44T846 198V455Q846 544 903 609T1066 674Z" />
<glyph unicode="&amp;" glyph-name="ampersand" horiz-adv-x="1292" d="M931 303L1042 165Q1088 106 1189 58Q1223 43 1235 24Q1238 13 1238 4Q1236 0 1236 -4Q1218 -22 1197 -22H953Q903 -22 853 57Q820 107 807 122Q744 44 648 -4Q550 -52 428 -52Q280 -52 191
37Q113 117 113 240Q113 253 114 265Q120 389 190 488Q255 583 396 676Q344 746 309 829Q278 901 278 982Q278 996 279 1010Q284 1148 372 1235Q459 1322 600 1322Q738 1322 813 1251Q882 1185 882 1079V1062Q875 951 810 865Q743 776 624 701L855 398L948 571Q954
585 956 599Q957 604 957 608Q957 616 955 621Q952 631 946 639T935 660Q933 666 933 671V674Q933 677 936 686Q948 720 981 720H1239Q1262 720 1274 706Q1280 700 1280 690V688Q1280 683 1278 675Q1268 656 1233 639Q1217 632 1200 624T1168 606Q1098 561 1047
485T931 303ZM559 788Q623 826 663 890Q701 953 708 1052V1066Q708 1130 685 1176Q664 1216 593 1216Q538 1216 507 1180Q471 1137 467 1061Q466 1050 466 1041Q466 906 559 788ZM737 214L457 584Q331 492 323 336Q322 326 322 316Q322 220 374 152Q428 82 509
82Q581 82 639 122T737 214Z" />
<glyph unicode="&apos;" glyph-name="quotesingle" horiz-adv-x="426" d="M272 968Q272 937 228 937H213Q170 937 170 968L118 1408V1413Q118 1463 197 1463H244Q323 1463 323 1414V1408L272 968Z" />
<glyph unicode="(" glyph-name="parenleft" horiz-adv-x="646" d="M54 568Q54 805 152 1056T566 1483Q579 1491 592 1491Q601 1491 613 1485Q624 1474 624 1442V1404Q389 1201 325 1025T260 568Q260 286 324 111T624 -268V-306Q624 -338 613 -349Q601 -355 592
-355Q579 -355 566 -347Q250 -172 152 79T54 568Z" />
<glyph unicode=")" glyph-name="parenright" horiz-adv-x="646" d="M624 568Q624 330 526 79T112 -347Q99 -355 86 -355Q77 -355 65 -349Q54 -338 54 -306V-268Q289 -65 353 110T418 568Q418 849 354 1025T54 1404V1442Q54 1474 65 1485Q77 1491 86 1491Q99 1491
112 1483Q428 1308 526 1057T624 568Z" />
<glyph unicode="*" glyph-name="asterisk" horiz-adv-x="1100" d="M875 511Q910 488 910 463Q910 451 902 439L873 395Q860 374 839 374Q821 374 796 390L630 498V300Q630 238 584 238H530Q484 238 484 300V498L318 390Q294 374 275 374Q254 374 241 395L212 439Q204
451 204 463Q204 488 239 511L424 632L239 752Q204 774 204 799Q204 811 212 824L241 868Q254 889 275 889Q293 889 318 873L484 765V964Q484 1026 530 1026H584Q630 1026 630 964V765L796 873Q820 889 839 889Q860 889 873 868L902 824Q910 811 910 799Q910 774
875 752L690 632L875 511Z" />
<glyph unicode="+" glyph-name="plus" horiz-adv-x="1100" d="M484 559H225Q163 559 163 605V658Q163 704 225 704H484V964Q484 1026 530 1026H584Q630 1026 630 964V704H889Q951 704 951 658V605Q951 559 889 559H630V300Q630 238 584 238H530Q484 238 484 300V559Z" />
<glyph unicode="," glyph-name="comma" horiz-adv-x="480" d="M249 -241Q214 -269 179 -269Q154 -269 130 -254Q116 -238 116 -223Q116 -211 127 -199Q149 -175 176 -159Q260 -107 272 -45Q167 -45 167 61V143Q167 250 302 250Q437 250 437 143V60Q411 -136 249 -241Z" />
<glyph unicode="-" glyph-name="hyphen" horiz-adv-x="1100" d="M225 704H889Q951 704 951 658V605Q951 559 889 559H225Q163 559 163 605V658Q163 704 225 704Z" />
<glyph unicode="." glyph-name="period" horiz-adv-x="480" d="M282 250Q417 250 417 143V61Q417 -45 282 -45Q147 -45 147 61V143Q147 250 282 250Z" />
<glyph unicode="/" glyph-name="slash" horiz-adv-x="1100" d="M58 -90L924 1494H1118L254 -90H58Z" />
<glyph unicode="0" glyph-name="zero" horiz-adv-x="1100" d="M575 1354Q408 1351 377 1209T346 966V454Q346 352 379 209T549 66Q685 66 744 178T804 454V966Q804 1130 750 1242T577 1354H575ZM348 1466T578 1466Q807 1466 929 1324T1051 989V431Q1051 235 912
95T551 -45Q328 -45 214 96T99 431V989Q99 1183 223 1324Z" />
<glyph unicode="1" glyph-name="one" horiz-adv-x="1100" d="M412 21V26Q412 59 461 76Q512 94 512 146V1232H308V1311L742 1496V146Q742 93 792 76T842 22V21Q842 -20 797 -20H457Q412 -20 412 21Z" />
<glyph unicode="2" glyph-name="two" horiz-adv-x="1100" d="M152 -20V78Q152 171 208 242Q258 306 371 427Q437 490 501 562T637 719T742 889T775 1032Q775 1089 752 1133Q703 1225 611 1261Q559 1281 508 1281Q456 1281 409 1270Q300 1242 229 1138Q206 1104
191 1060H143V1213Q154 1244 165 1265Q210 1337 288 1393T478 1466Q522 1472 565 1472Q706 1472 832 1401Q1000 1306 1003 1090V1086Q1003 945 928 820T751 583T546 353T403 170H734Q858 170 1005 223L1007 32Q934 -13 864 -16T736 -20H152Z" />
<glyph unicode="3" glyph-name="three" horiz-adv-x="1100" d="M419 -51Q281 -51 172 34L166 229H213Q277 122 407 92Q455 81 514 81Q572 81 635 114Q730 164 765 258Q784 311 784 360Q784 408 770 451Q740 548 646 618T366 692L362 753Q446 780 531 817T656 923T696
1053Q696 1071 693 1090Q679 1168 621 1228T473 1289Q465 1289 458 1288Q357 1282 291 1203Q261 1166 245 1108H196V1289Q288 1391 383 1428T568 1466Q814 1463 895 1268Q918 1212 918 1157Q918 1022 779 890Q750 862 735 851Q857 791 921 680T985 458Q985 443
984 427Q965 203 752 50Q638 -31 471 -48Q444 -51 419 -51Z" />
<glyph unicode="4" glyph-name="four" horiz-adv-x="1100" d="M650 146V395H68V534L660 1424H880V576H1082V395H880V146Q880 97 950 79T1022 21V17Q1022 -20 977 -20H552Q506 -18 506 18Q506 20 507 22Q509 61 579 78T650 146ZM650 576V1165L262 576H650Z" />
<glyph unicode="5" glyph-name="five" horiz-adv-x="1100" d="M800 450V478Q801 484 801 489Q801 526 773 585Q737 674 644 724Q573 756 507 756Q404 756 315 676Q278 633 218 633Q205 633 194 635Q182 635 156 637T130 687V1371Q130 1406 143 1415T201 1424H695Q731
1424 809 1421T958 1373V1158Q818 1210 695 1210H276V803Q331 837 416 870Q504 906 590 906Q636 906 683 895Q813 866 902 782Q1044 661 1044 450Q1044 423 1042 394Q1016 217 892 99Q747 -40 481 -44Q270 -44 108 61V279H153Q206 184 301 143Q394 101 486 101H498Q509
101 520 102Q624 111 701 196Q797 293 800 450Z" />
<glyph unicode="6" glyph-name="six" horiz-adv-x="1100" d="M451 881T369 757T286 459Q286 285 367 174T551 63H562Q672 68 755 192T838 491Q838 665 757 776T573 887H562Q451 881 369 757ZM551 991Q585 991 620 987Q794 968 909 863Q1079 707 1080 484V481Q1080
261 934 110Q784 -46 579 -46H564Q343 -40 206 109T69 466V475Q72 800 213 1031T606 1435Q634 1454 650 1462T706 1471L775 1470Q843 1470 843 1448Q843 1425 817 1412Q652 1297 545 1186T384 972Q417 991 551 991Z" />
<glyph unicode="7" glyph-name="seven" horiz-adv-x="1100" d="M432 146Q395 74 374 -20L161 -19Q156 15 156 25Q159 82 179 129Q207 193 230 239Q304 384 527 766Q696 1055 788 1210H429Q304 1210 166 1157V1373Q234 1415 307 1420Q372 1424 429 1424H923Q969
1424 981 1415Q994 1406 994 1364V1358Q993 1285 962 1221Q828 952 696 684T432 146Z" />
<glyph unicode="8" glyph-name="eight" horiz-adv-x="1100" d="M859 592T779 664T584 736Q469 736 389 661Q306 584 306 406V402Q308 221 378 148T584 74Q718 74 789 146T860 405Q859 592 779 664ZM128 1102Q129 1287 262 1377T615 1468Q834 1468 944 1362Q1048
1260 1048 1100V1088Q1042 837 844 794Q909 778 1001 676Q1100 570 1100 374V372Q1100 173 951 68Q802 -40 565 -40H563Q326 -40 188 74Q50 188 50 402Q51 569 147 673T320 797Q128 842 128 1102ZM589 1363Q471 1363 419 1289T365 1104V1095Q366 991 412 917Q454
846 596 846L598 845Q724 845 769 919T814 1104Q814 1215 760 1289T589 1363Z" />
<glyph unicode="9" glyph-name="nine" horiz-adv-x="1100" d="M698 544T780 668T863 966Q863 1140 782 1251T598 1362H587Q477 1357 394 1233T311 934Q311 760 392 649T576 538H587Q698 544 780 668ZM598 434Q564 434 529 438Q355 457 240 562Q70 718 69 941V944Q69
1164 215 1315Q365 1471 570 1471H585Q806 1465 943 1316T1080 959V950Q1077 625 936 394T543 -10Q515 -29 499 -37T443 -46L374 -45Q306 -45 306 -23Q306 0 332 13Q497 128 604 239T765 453Q732 434 598 434Z" />
<glyph unicode=":" glyph-name="colon" horiz-adv-x="480" d="M147 967T282 967T417 860V778Q417 672 282 672T147 778V860Q147 967 282 967ZM147 250T282 250T417 143V61Q417 -45 282 -45T147 61V143Q147 250 282 250Z" />
<glyph unicode=";" glyph-name="semicolon" horiz-adv-x="480" d="M142 967T277 967T412 860V778Q412 672 277 672T142 778V860Q142 967 277 967ZM249 -241Q214 -269 179 -269Q154 -269 130 -254Q116 -238 116 -223Q116 -211 127 -199Q149 -175 176 -159Q260 -107
272 -45Q167 -45 167 61V143Q167 250 302 250T437 143V60Q411 -136 249 -241Z" />
<glyph unicode="&lt;" glyph-name="less" horiz-adv-x="1100" d="M191 595Q177 609 175 628V630Q175 651 201 677L819 1281Q847 1307 874 1307Q898 1307 916 1289L965 1239Q976 1225 977 1207V1204Q977 1182 954 1158L415 631L954 105Q975 82 977 57V53Q977 37
964 23L914 -27Q898 -43 874 -43Q847 -43 819 -17L191 595Z" />
<glyph unicode="=" glyph-name="equal" horiz-adv-x="1100" d="M225 554H889Q951 554 951 508V455Q951 409 889 409H225Q163 409 163 455V508Q163 554 225 554ZM225 854H889Q951 854 951 808V755Q951 709 889 709H225Q163 709 163 755V808Q163 854 225 854Z" />
<glyph unicode="&gt;" glyph-name="greater" horiz-adv-x="1100" d="M961 595Q961 595 333 -17Q305 -43 278 -43Q254 -43 238 -27L188 23Q175 37 175 53V57Q177 82 198 105L737 631L198 1158Q175 1182 175 1204V1207Q176 1225 187 1239L236 1289Q254 1307 278
1307Q305 1307 333 1281L951 677Q977 651 977 630V628Q975 609 961 595Z" />
<glyph unicode="?" glyph-name="question" horiz-adv-x="784" d="M266 250T401 250T536 143V61Q536 -45 401 -45T266 61V143Q266 250 401 250ZM469 478Q469 423 458 389Q441 349 404 349Q368 349 353 394Q341 425 341 479V795Q470 886 514 955Q558 1025 558 1120Q558
1223 517 1274Q480 1319 403 1319Q338 1319 309 1279Q275 1231 265 1105Q262 1073 236 1056Q211 1038 169 1038Q125 1038 100 1057Q78 1076 78 1114Q78 1254 172 1338T426 1422Q591 1422 687 1341Q781 1260 781 1121Q781 947 604 837Q586 826 561 811Q506 776 492
747Q476 719 473 650L469 478Z" />
<glyph unicode="@" glyph-name="at" horiz-adv-x="2119" d="M1885 168Q1833 100 1764 42T1614 -49Q1520 -89 1428 -89Q1359 -89 1292 -66Q1182 -28 1182 87V61L908 -32Q871 -45 844 -45H802Q646 -37 563 81Q499 171 499 300Q499 414 545 529T658 722Q697 769 775
819Q801 835 835 848Q922 878 1009 908T1186 968Q1208 976 1229 976H1235Q1303 973 1390 942Q1400 939 1404 937Q1421 929 1450 918Q1457 916 1462 916Q1469 916 1476 920Q1500 937 1509 946Q1522 962 1544 962Q1554 962 1564 958Q1596 944 1596 922V918L1429 196Q1420
157 1420 128Q1420 55 1475 41Q1489 37 1504 37Q1536 37 1575 53Q1639 77 1690 125Q1777 204 1835 356Q1894 511 1894 699Q1894 1034 1692 1190Q1485 1350 1191 1350Q971 1350 757 1240Q542 1131 408 904Q272 677 272 387Q272 162 362 -22Q451 -202 623 -304Q791
-404 1030 -404Q1232 -404 1412 -333Q1576 -268 1702 -163Q1713 -152 1730 -152Q1748 -152 1761 -165Q1775 -179 1775 -196Q1775 -209 1768 -222Q1756 -249 1739 -265Q1588 -405 1396 -466T985 -527Q573 -527 310 -267Q48 -9 48 388Q48 839 375 1151Q704 1462 1182
1462Q1566 1462 1818 1254Q2069 1044 2069 702Q2069 408 1885 168ZM1190 159L1329 765Q1305 793 1251 822T1151 854H1148Q1133 854 1117 848Q1077 835 1038 822T960 795Q939 787 923 773Q850 710 808 619T752 439Q744 393 744 352Q744 271 774 214Q817 130 899
105Q932 95 966 95Q977 95 989 96Q1008 98 1038 108Q1060 115 1113 133T1190 159Z" />
<glyph unicode="A" glyph-name="A" horiz-adv-x="1593" d="M1606 20T1606 13Q1606 6 1600 -7T1567 -20H1229Q1211 -20 1195 -9T1176 11T1172 32Q1172 43 1186 56T1211 77T1225 94T1228 114Q1228 126 1222 141L1079 469H532Q502 397 467 312T409 175T386 113T385
96Q385 89 387 81T397 64T406 44T409 28Q409 21 406 15Q394 -20 360 -20H102Q61 -20 61 10Q61 16 63 24Q69 52 104 67T176 99Q207 121 221 152L794 1447H891Q947 1315 1020 1144T1172 792T1324 440T1449 152Q1462 120 1491 101T1543 71T1581 51T1601 30ZM1027 590L801
1117Q761 1020 698 868T582 590H1027Z" />
<glyph unicode="B" glyph-name="B" horiz-adv-x="1240" d="M729 1424Q832 1424 945 1388T1120 1243Q1168 1159 1168 1041Q1166 928 1103 839Q1056 771 1005 748Q1108 715 1179 594Q1231 501 1231 372Q1229 248 1160 150Q1099 64 989 22T786 -20H159Q113 -20 113
21Q113 59 163 77T213 146V1258Q213 1308 163 1326T113 1383Q113 1424 159 1424H729ZM443 667V93H644Q713 93 782 113T901 182Q978 257 978 383Q978 504 897 584Q811 667 665 667H443ZM443 794H692Q799 806 865 869Q934 936 934 1050Q934 1161 861 1231Q784 1305
654 1305H443V794Z" />
<glyph unicode="C" glyph-name="C" horiz-adv-x="1405" d="M873 -57Q556 -57 312 145T67 701Q67 1046 304 1255T873 1465Q991 1465 1124 1439T1390 1328L1365 1106Q1357 1071 1320 1071H1316Q1288 1073 1268 1112Q1213 1231 1104 1286Q1002 1336 887 1336H867Q611
1325 465 1130Q332 952 332 735Q332 711 334 686Q348 461 490 279T874 85Q898 84 919 84Q1040 84 1118 120Q1206 162 1268 295Q1287 336 1323 336Q1331 336 1340 334Q1372 322 1372 292Q1372 281 1367 268L1277 17Q1168 -28 1066 -42T873 -57Z" />
<glyph unicode="D" glyph-name="D" horiz-adv-x="1585" d="M449 116Q553 96 664 96Q706 96 747 99Q1082 128 1218 387Q1290 524 1290 736V769Q1277 1073 1099 1201Q949 1314 702 1314H676Q555 1314 449 1297V116ZM239 1427L552 1433Q706 1433 878 1424T1198 1350T1441
1154Q1549 1002 1552 727Q1552 558 1483 409T1277 155Q1046 -23 714 -27H634Q576 -27 525 -26H408Q324 -26 281 -23H258Q219 -23 155 -29Q108 -29 108 11Q108 51 158 69T208 139V1262Q208 1313 158 1330T108 1387Q108 1428 154 1428Q196 1427 239 1427Z" />
<glyph unicode="E" glyph-name="E" horiz-adv-x="1251" d="M486 114H888Q968 114 1028 181T1122 288Q1148 319 1171 319Q1217 319 1217 278Q1217 263 1214 253L1137 -20H198Q155 -20 155 21Q155 59 205 76T255 146V1257Q255 1309 205 1326T155 1383Q155 1424 201
1424H1154V1147Q1154 1106 1108 1106Q1083 1106 1049 1156Q1000 1224 968 1257T888 1291H486V788H690Q736 788 756 839T820 891Q865 891 865 850V596Q865 555 820 555Q777 555 754 606T684 657H486V114Z" />
<glyph unicode="F" glyph-name="F" horiz-adv-x="1139" d="M199 -20Q155 -20 155 21Q155 43 186 62Q200 72 218 83T247 112Q255 128 255 146V1257Q255 1309 205 1326T155 1383Q155 1424 201 1424H1154V1147Q1154 1106 1108 1106Q1083 1106 1049 1156Q1000 1224
968 1257T888 1291H486V788H690Q719 788 743 816Q760 836 773 863T820 891Q865 891 865 850V596Q865 555 820 555Q785 555 770 586T736 638Q716 658 690 658H486V146Q486 122 496 106Q506 92 521 82T552 63Q585 43 585 21Q585 13 583 5Q568 -20 540 -20H199Z" />
<glyph unicode="G" glyph-name="G" horiz-adv-x="1563" d="M873 -57Q556 -57 312 145T67 701Q67 1046 304 1255T873 1465Q991 1465 1124 1439T1390 1328L1365 1106Q1357 1071 1320 1071H1316Q1288 1073 1268 1112Q1206 1244 1116 1287T873 1330Q661 1330 494 1182T327
701Q327 489 484 293T874 85Q898 84 919 84Q1027 84 1100 112Q1185 145 1242 244V428Q1241 448 1221 459Q1196 473 1138 497T1079 554Q1079 595 1125 595H1526Q1572 595 1572 554Q1572 515 1522 497T1472 428V20Q1297 12 1157 -23Q1083 -43 1011 -50T873 -57Z"
/>
<glyph unicode="H" glyph-name="H" horiz-adv-x="1638" d="M485 1257V809H1280V1257Q1280 1308 1230 1326T1180 1383Q1180 1424 1226 1424H1565Q1611 1424 1611 1383Q1611 1344 1561 1326T1510 1257V146Q1510 94 1560 77T1611 21Q1611 -20 1565 -20H1226Q1180
-20 1180 21Q1180 59 1230 76T1280 146V677H485V146Q485 94 535 77T585 21Q585 -20 540 -20H201Q155 -20 155 21Q155 59 205 76T255 146V1257Q255 1308 205 1326T155 1383Q155 1424 201 1424H540Q585 1424 585 1383Q585 1344 535 1326T485 1257Z" />
<glyph unicode="I" glyph-name="I" horiz-adv-x="690" d="M485 1257V147Q485 94 535 77T585 21Q585 -20 539 -20H200Q155 -20 155 21Q155 59 205 76T255 146V1257Q255 1309 205 1326T155 1383Q155 1424 201 1424H539Q585 1424 585 1383Q585 1344 535 1327T485 1257Z" />
<glyph unicode="J" glyph-name="J" horiz-adv-x="682" d="M480 180Q480 -19 453 -118T357 -289Q262 -386 110 -427V-339Q156 -311 187 -277T237 -185Q248 -146 248 -73T249 174V1258Q249 1309 199 1327T149 1384Q149 1424 195 1424H534Q580 1424 580 1384Q580
1345 530 1327T480 1258V180Z" />
<glyph unicode="K" glyph-name="K" horiz-adv-x="1487" d="M964 1254Q1042 1327 1090 1375T1176 1423Q1212 1423 1236 1411L1343 1359Q1371 1342 1371 1326Q1371 1309 1367 1299L1307 1130L1211 1170Q1177 1184 1144 1184Q1110 1184 1078 1153L688 772L1427 91Q1445
73 1473 61T1501 21Q1501 -20 1456 -20H1117Q1071 -20 1071 21Q1071 35 1092 55Q1097 59 1097 64V65Q1097 78 1073 98L485 640V146Q485 94 535 77T585 20Q585 -20 540 -20H201Q155 -20 155 20Q155 59 205 76T255 146V1257Q255 1308 205 1326T155 1383Q155 1424
201 1424H540Q585 1424 585 1383Q585 1344 535 1326T485 1257V800L964 1254Z" />
<glyph unicode="L" glyph-name="L" horiz-adv-x="1251" d="M486 114H888Q968 114 1028 181T1122 288Q1148 319 1171 319Q1217 319 1217 278Q1217 263 1214 253L1137 -20H201Q155 -20 155 21Q155 59 205 76T255 146V1257Q255 1308 205 1326T155 1383Q155 1424 201
1424H540Q585 1424 585 1383Q585 1344 535 1326T485 1257L486 114Z" />
<glyph unicode="M" glyph-name="M" horiz-adv-x="1908" d="M1747 1257V146Q1747 94 1797 77T1848 21Q1848 -20 1802 -20H1463Q1417 -20 1417 21Q1417 59 1467 76T1517 146V1106L982 -50H909L380 1061V146Q380 94 430 77T480 21Q480 -20 434 -20H180Q134 -20 134
21Q134 59 184 76T234 146V1257Q234 1308 184 1326T134 1383Q134 1424 180 1424H463L993 338L1506 1424H1802Q1848 1424 1848 1383Q1848 1344 1798 1326T1747 1257Z" />
<glyph unicode="N" glyph-name="N" horiz-adv-x="1644" d="M1369 271V1257Q1369 1308 1320 1326T1270 1383Q1270 1424 1315 1424H1570Q1616 1424 1616 1383Q1616 1344 1566 1326T1516 1257L1515 -70L1297 -17L380 1121V146Q380 94 430 77T480 21Q480 -20 434 -20H180Q134
-20 134 21Q134 59 184 76T234 146V1257Q234 1308 184 1326T134 1383Q134 1424 180 1424H451L1369 271Z" />
<glyph unicode="O" glyph-name="O" horiz-adv-x="1610" d="M833 1338Q541 1337 424 1152T307 702Q307 437 454 253T833 66H838Q1063 66 1210 260Q1358 457 1358 696V702Q1356 946 1233 1142T833 1338ZM833 1466H843Q1177 1466 1407 1261Q1620 1070 1620 760Q1620
732 1618 704Q1597 353 1373 158T832 -55Q809 -56 785 -56Q496 -56 274 143Q48 345 48 669Q48 687 49 706Q61 1053 276 1257T833 1466Z" />
<glyph unicode="P" glyph-name="P" horiz-adv-x="1237" d="M464 146Q464 94 514 77T564 21Q564 -20 519 -20H180Q134 -20 134 21Q134 59 183 76T232 146L234 1257Q234 1308 184 1326T134 1383Q134 1424 180 1424H770Q878 1424 996 1386T1181 1234Q1231 1145 1231
1022Q1229 904 1163 809Q1105 727 999 687T806 647H464V146ZM464 1301V757H671Q736 757 801 775T914 841Q988 912 988 1032Q988 1147 911 1223Q830 1301 691 1301H464Z" />
<glyph unicode="Q" glyph-name="Q" horiz-adv-x="1610" d="M833 1466H843Q1177 1466 1407 1261Q1620 1070 1620 760Q1620 732 1618 704Q1596 353 1372 158Q1192 2 955 -41Q1007 -59 1068 -86Q1241 -164 1329 -164Q1359 -164 1454 -137V-225Q1350 -285 1298 -342Q1156
-323 958 -242T700 -161Q671 -161 525 -257V-144Q612 -77 658 -46Q446 -11 274 143Q48 345 48 669Q48 687 49 706Q61 1054 276 1258T833 1466ZM833 1338Q541 1337 424 1152T307 698Q307 434 454 252Q602 68 833 66H838Q1063 66 1210 260Q1358 457 1358 696V702Q1356
946 1233 1142T833 1338Z" />
<glyph unicode="R" glyph-name="R" horiz-adv-x="1368" d="M1308 84Q1327 68 1364 65Q1414 59 1414 24V20Q1408 -20 1368 -20H1101Q1078 -20 1015 63T874 254T715 475T585 647H464V146Q464 94 514 77T564 21Q564 -20 519 -20H180Q134 -20 134 21Q134 59 184 76T234
146V1257Q234 1308 184 1326T134 1383Q134 1424 180 1424H770Q878 1424 996 1386T1181 1234Q1231 1145 1231 1022Q1229 904 1163 809Q1109 733 1015 693T875 651L1308 84ZM464 1301V757H671Q736 757 801 775T914 841Q988 912 988 1032Q988 1147 911 1223Q830 1301
691 1301H464Z" />
<glyph unicode="S" glyph-name="S" horiz-adv-x="1075" d="M857 388V399Q854 503 779 557Q745 582 669 603T481 637T269 697T123 831T76 1018Q76 1213 215 1341T570 1469H601Q832 1459 1005 1347L980 1126Q976 1090 936 1090H931Q901 1092 883 1131Q843 1217 767
1276T604 1339H589Q504 1339 450 1313T371 1261T329 1201T305 1130T297 1062Q297 1030 308 999Q327 938 367 909T439 872T507 857T591 844T703 826T852 790T982 713T1054 602T1081 459Q1081 237 900 89Q806 12 703 -21T537 -56T452 -59Q309 -59 165 -15L67 258Q64
266 64 278Q64 289 76 308T121 327Q148 320 165 285Q226 152 308 113T506 73Q531 73 582 76T702 114T814 218T857 388Z" />
<glyph unicode="T" glyph-name="T" horiz-adv-x="1255" d="M1265 1147Q1265 1106 1219 1106Q1196 1106 1159 1156Q1109 1224 1077 1257T997 1291H771V146Q771 94 821 76T871 20Q871 -20 826 -20H487Q441 -20 441 20Q441 58 491 76T541 146V1291H311Q263 1291 230
1258T148 1156Q113 1106 89 1106Q43 1106 43 1147V1332Q43 1396 70 1412T182 1429H1126Q1218 1429 1241 1414T1265 1332V1147Z" />
<glyph unicode="U" glyph-name="U" horiz-adv-x="1554" d="M234 588V1258Q234 1309 184 1326T134 1383Q134 1424 180 1424H519Q564 1424 564 1383Q564 1344 515 1328T466 1260V721Q466 569 476 453T526 258Q564 183 642 145T864 106Q1111 106 1198 301Q1264 443
1264 721V1257Q1264 1308 1214 1326T1164 1383Q1164 1424 1210 1424H1465Q1510 1424 1510 1383Q1510 1344 1461 1326T1411 1257V588Q1410 437 1383 311T1282 97Q1147 -59 864 -59Q689 -59 563 -26T360 98Q234 244 234 588Z" />
<glyph unicode="V" glyph-name="V" horiz-adv-x="1479" d="M441 1269L844 237L1272 1114Q1283 1137 1283 1154Q1283 1167 1277 1177Q1258 1206 1219 1253L1158 1324L1297 1429Q1312 1442 1332 1442Q1352 1442 1373 1425L1456 1340Q1487 1308 1487 1262Q1487 1238
1478 1210Q1454 1138 1406 1041L917 26Q909 7 898 -7Q881 -20 863 -20H712Q688 -20 675 -3Q670 2 662 24T651 55L273 1105Q233 1210 215 1251Q200 1284 164 1310Q143 1323 120 1332T82 1353Q66 1362 62 1375Q57 1382 57 1392Q57 1400 63 1409Q73 1424 96 1424H435Q453
1424 470 1412Q484 1400 489 1389Q491 1382 491 1378Q491 1361 474 1345Q463 1336 453 1327T437 1306Q435 1300 435 1292Q435 1281 441 1269Z" />
<glyph unicode="W" glyph-name="W" horiz-adv-x="2119" d="M441 1269L844 237L1064 687L913 1105Q873 1210 855 1251Q840 1284 804 1310Q783 1322 760 1332T722 1353Q706 1362 702 1375Q697 1382 697 1392Q697 1400 703 1409Q713 1424 736 1424H1075Q1093 1424
1110 1412Q1124 1400 1129 1389Q1131 1382 1131 1378Q1131 1361 1114 1345Q1102 1336 1092 1327T1077 1306Q1075 1300 1075 1292Q1075 1281 1081 1269L1200 965L1272 1114Q1283 1137 1283 1154Q1283 1167 1277 1177Q1258 1206 1219 1253L1158 1324L1297 1429Q1312
1442 1332 1442T1373 1425L1456 1340Q1487 1308 1487 1262Q1487 1238 1478 1210Q1454 1138 1406 1041L1276 770L1484 237L1912 1114Q1923 1137 1923 1154Q1923 1167 1917 1177Q1898 1206 1859 1253L1798 1324L1937 1429Q1952 1442 1972 1442T2013 1425L2096 1340Q2127
1308 2127 1262Q2127 1238 2118 1210Q2094 1138 2046 1041L1557 26Q1549 7 1538 -7Q1521 -20 1503 -20H1352Q1328 -20 1315 -3Q1310 2 1302 24T1291 55L1137 483L917 26Q909 7 898 -7Q881 -20 863 -20H712Q688 -20 675 -3Q670 2 662 24T651 55L273 1105Q233 1210
215 1251Q200 1284 164 1310Q143 1322 120 1332T82 1353Q66 1362 62 1375Q57 1382 57 1392Q57 1400 63 1409Q73 1424 96 1424H435Q453 1424 470 1412Q484 1400 489 1389Q491 1382 491 1378Q491 1361 474 1345Q462 1336 452 1327T437 1306Q435 1300 435 1292Q435
1281 441 1269Z" />
<glyph unicode="X" glyph-name="X" horiz-adv-x="1366" d="M382 80L391 41Q391 22 376 1T332 -20H74Q40 -20 36 5V11Q36 39 82 59L134 80Q202 109 236 156L624 698L267 1249Q232 1301 149 1332Q122 1340 106 1350Q71 1370 71 1394V1399Q75 1424 106 1424H445Q475
1424 492 1404T509 1372Q509 1360 500 1349T483 1330T474 1313V1308Q474 1290 487 1272L747 873L991 1214Q1061 1311 1113 1370T1220 1430Q1234 1430 1249 1426L1349 1394Q1381 1381 1381 1359Q1381 1346 1378 1337L1331 1146L1240 1167Q1189 1178 1159 1180H1157Q1140
1180 1115 1144L832 742L1213 155Q1242 110 1332 72Q1358 61 1373 52Q1410 31 1410 11Q1410 -20 1374 -20H1035Q1019 -20 1001 -11Q971 5 971 27Q971 44 988 64T1006 92V98Q1006 114 995 132L709 567L408 137Q382 101 382 80Z" />
<glyph unicode="Y" glyph-name="Y" horiz-adv-x="1366" d="M591 669L243 1249Q223 1279 174 1309Q148 1322 122 1332T78 1353Q63 1361 54 1373Q47 1384 47 1394V1399Q51 1424 82 1424H421Q440 1424 456 1414Q470 1404 479 1392Q485 1382 485 1373Q485 1360 474
1347Q467 1338 459 1330T450 1313V1308Q450 1291 463 1272L778 773L1015 1133Q1042 1174 1046 1203Q1047 1206 1047 1210Q1047 1236 1026 1279L983 1365L1145 1436Q1158 1441 1170 1441Q1198 1441 1216 1414L1277 1312Q1290 1289 1290 1266Q1290 1225 1251 1185Q1199
1130 1140 1045L874 657Q858 633 853 587T848 497V146Q848 94 898 77T948 21Q948 -20 902 -20H563Q517 -20 517 21Q517 59 567 76T617 146V573Q617 627 591 669Z" />
<glyph unicode="Z" glyph-name="Z" horiz-adv-x="1366" d="M267 1106Q221 1106 221 1147V1332Q221 1396 248 1412T360 1429H1284Q1380 1429 1399 1409Q1416 1390 1416 1369V1367Q1416 1346 1397 1321L439 118L1175 119Q1223 119 1255 152T1330 244T1397 303Q1443
303 1443 262V77Q1443 9 1419 -5T1305 -20H234Q147 -20 120 -13Q80 3 80 28Q80 47 104 72L1052 1292L489 1291Q441 1291 408 1258T333 1165T267 1106Z" />
<glyph unicode="[" glyph-name="bracketleft" horiz-adv-x="682" d="M508 -347Q550 -347 550 -394Q550 -440 513 -440H266Q220 -440 220 -400V1436Q220 1486 266 1486H513Q550 1486 550 1438Q550 1389 508 1389H388V-347H508Z" />
<glyph unicode="\" glyph-name="backslash" horiz-adv-x="1100" d="M1118 -90H922L58 1494H252L1118 -90Z" />
<glyph unicode="]" glyph-name="bracketright" horiz-adv-x="682" d="M262 -347Q262 -347 382 -347V1389H262Q220 1389 220 1438Q220 1486 257 1486H504Q550 1486 550 1436V-400Q550 -440 504 -440H257Q220 -440 220 -394Q220 -347 262 -347Z" />
<glyph unicode="^" glyph-name="asciicircum" horiz-adv-x="1100" d="M520 1450H659L995 892H886L590 1274L291 892H184L520 1450Z" />
<glyph unicode="_" glyph-name="underscore" horiz-adv-x="1100" d="M0 -198H1150V-356H0V-198Z" />
<glyph unicode="`" glyph-name="grave" horiz-adv-x="1000" d="M724 1087Q719 1087 313 1239Q252 1261 252 1326Q252 1420 351 1420Q382 1420 407 1402L786 1142Q798 1128 798 1114Q798 1077 755 1077Q744 1077 724 1087Z" />
<glyph unicode="a" glyph-name="a" horiz-adv-x="1155" d="M494 -45H452Q298 -37 188 79Q62 212 62 440Q62 493 72 562T124 699T211 800T287 848Q629 976 652 976H658Q726 973 778 956T858 928T901 916Q915 916 936 945Q949 962 965 962Q981 962 1004 954T1028
920V146Q1028 94 1078 77T1128 20Q1128 -20 1082 -20H839Q797 -20 797 13V56L557 -32Q520 -45 494 -45ZM591 854Q575 854 515 831T427 798T388 775Q330 713 312 634T293 532V500Q293 318 363 224Q458 95 593 95Q627 95 672 111T797 158V762Q765 792 703 822T594
854H591Z" />
<glyph unicode="b" glyph-name="b" horiz-adv-x="1139" d="M393 168Q424 137 486 107T595 76H601Q612 76 628 82Q666 96 701 108T772 135Q788 141 802 155Q859 216 880 305Q896 377 896 448Q896 469 895 488Q884 626 822 711Q758 798 666 825Q629 835 593 835Q583
835 574 834Q555 832 529 823Q506 814 457 796T393 772V168ZM355 -7Q335 1 304 11Q295 14 288 14Q283 14 280 11Q260 -6 253 -14Q241 -31 219 -31Q208 -31 199 -27Q162 -14 162 11V1257Q162 1308 112 1326T62 1383Q62 1424 107 1424Q169 1427 231 1443T393 1493V874L633
963Q666 975 694 977Q705 977 715 977T738 976Q892 968 1001 852Q1107 736 1123 572Q1127 530 1127 489Q1127 436 1120 386Q1107 297 1052 210Q1021 160 958 112Q932 93 900 81Q820 52 740 22T579 -37Q556 -45 536 -45H531Q464 -42 368 -13Q358 -9 355 -7Z" />
<glyph unicode="c" glyph-name="c" horiz-adv-x="925" d="M601 976Q773 976 927 877L909 697Q904 666 872 666H869Q840 668 826 700Q789 781 731 815T589 850H566Q467 845 418 797Q317 702 317 519Q317 491 320 459Q330 315 397 224Q485 108 588 92Q605 90 623
90Q714 90 787 134T883 179Q905 179 927 175Q934 156 934 142Q934 127 919 99T881 51Q762 -45 566 -45Q370 -45 235 64Q79 196 79 446Q79 502 87 565Q132 795 327 907Q437 970 579 976H601Z" />
<glyph unicode="d" glyph-name="d" horiz-adv-x="1231" d="M817 56L577 -32Q540 -45 514 -45H472Q318 -37 210 77Q101 193 86 358Q82 400 82 440Q82 493 89 543Q102 632 158 720Q185 767 252 818Q277 835 307 848Q388 878 468 908T630 968Q652 976 672 976H678Q746
973 842 942H844Q844 943 817 956V1257Q817 1308 767 1326T717 1383Q717 1424 762 1424Q824 1427 886 1443T1048 1493V146Q1048 94 1098 77T1148 21Q1148 -20 1102 -20H859Q817 -20 817 13V56ZM817 763Q781 795 720 823T614 854H611Q597 854 581 848Q545 835 510
822T438 795Q419 787 408 775Q350 713 330 624Q313 554 313 486Q313 465 315 442Q326 303 390 217Q452 130 544 105Q578 95 613 95Q624 95 635 96Q653 98 680 107Q703 115 752 133T817 158V763Z" />
<glyph unicode="e" glyph-name="e" horiz-adv-x="1004" d="M562 980Q771 980 881 860T992 551Q991 510 988 484T923 458H311Q314 321 388 221T573 98Q605 91 638 91Q726 91 805 134T906 177Q927 177 937 169T948 145Q948 129 934 102T912 66T896 50Q779 -51 581
-51Q305 -49 168 125Q62 259 62 441Q62 495 71 553Q100 744 226 861T558 980H562ZM788 571Q788 669 739 760T564 852H553Q428 848 372 758T312 571H788Z" />
<glyph unicode="f" glyph-name="f" horiz-adv-x="683" d="M438 1027V969L652 973Q692 973 692 943Q692 912 688 890Q674 826 618 826L438 827V146Q438 94 488 77T538 20Q538 -20 492 -20H153Q107 -20 107 20Q107 59 157 76T207 146V824L114 820Q70 820 68 860V862Q68
889 100 904Q119 913 158 934T210 960Q215 962 215 963Q215 965 207 965V1027Q207 1156 227 1224T270 1322T326 1363L584 1459L627 1465Q660 1465 689 1446T727 1409T736 1376Q736 1360 734 1325T701 1281H694Q674 1281 640 1304T575 1327Q545 1327 523 1318Q452
1288 443 1197Q439 1160 439 1117T438 1027Z" />
<glyph unicode="g" glyph-name="g" horiz-adv-x="1103" d="M797 219V762Q765 792 703 822T594 854H591Q577 854 561 848Q525 835 490 822T418 795Q399 787 388 775Q330 713 310 624Q293 554 293 486Q293 465 295 442Q306 303 370 217Q432 130 524 105Q558 95 593
95Q604 95 615 96Q633 98 660 107Q683 115 731 133T796 157V219H797ZM796 56L557 -32Q520 -45 494 -45H452Q298 -37 190 77Q81 193 66 358Q62 400 62 440Q62 493 69 543Q82 632 138 720Q165 767 232 818Q257 835 287 848Q368 878 448 908T610 968Q632 976 652 976H658Q726
973 822 942Q832 939 834 937Q854 929 885 919Q893 916 900 916Q906 916 910 919Q929 935 936 945Q949 962 971 962Q982 962 991 958Q1028 945 1028 920V-180Q1028 -353 976 -398T832 -477L557 -580Q520 -593 494 -593Q467 -593 451 -592Q299 -587 188 -468Q131
-406 92 -305Q199 -263 316 -220Q341 -291 370 -330Q433 -416 524 -442Q558 -451 591 -451Q604 -451 615 -450Q634 -448 660 -440Q671 -435 690 -428T730 -413Q767 -395 782 -327T797 -237L796 56Z" />
<glyph unicode="h" glyph-name="h" horiz-adv-x="1207" d="M412 146Q412 94 462 77T512 20Q512 -20 467 -20H128Q82 -20 82 20Q82 59 132 76T182 146V1257Q182 1308 132 1326T82 1383Q82 1424 127 1424Q189 1427 251 1443T412 1493V885Q432 892 474 908T583 947T708
976T780 982Q874 982 957 919Q1086 820 1086 506V146Q1086 94 1136 77T1186 20Q1186 -20 1141 -20H898Q856 -20 856 13V506Q856 718 771 801Q720 851 648 851Q605 851 568 839T498 814T439 791Q416 783 412 781V146Z" />
<glyph unicode="i" glyph-name="i" horiz-adv-x="593" d="M172 1420T307 1420T442 1290Q442 1159 307 1159T172 1290Q172 1420 307 1420ZM442 146Q442 94 492 77T542 20Q542 -20 497 -20H158Q112 -20 112 20Q112 59 162 76T212 146V786Q212 836 162 854T112 911Q112
952 157 952Q219 955 281 972T442 1022V146Z" />
<glyph unicode="j" glyph-name="j" horiz-adv-x="487" d="M172 1420T307 1420T442 1290Q442 1159 307 1159T172 1290Q172 1420 307 1420ZM393 12Q392 -187 365 -286T270 -457Q172 -557 22 -594V-507Q120 -448 150 -353Q161 -314 161 -241T162 6V786Q162 836 112
854T62 911Q62 952 107 952Q169 955 231 972T393 1022V12Z" />
<glyph unicode="k" glyph-name="k" horiz-adv-x="1163" d="M432 434V146Q432 94 482 77T532 21Q532 -20 487 -20H148Q102 -20 102 21Q102 59 152 76T202 146V1257Q202 1308 152 1326T102 1383Q102 1424 147 1424Q209 1427 271 1443T432 1493V599L743 848Q806 899
854 929Q888 949 920 949Q945 949 969 936L1044 890Q1066 875 1066 856Q1066 847 1061 839L1004 711L928 750Q904 762 883 762Q859 762 836 745Q691 637 597 563L930 238Q1035 136 1063 123Q1081 115 1098 115Q1105 115 1113 116Q1123 119 1134 119Q1171 119 1185
90Q1188 80 1188 74Q1188 52 1165 42L1101 12Q1043 -14 992 -14Q957 -14 926 -1Q856 27 799 83L437 435Q441 439 441 440Q440 440 432 434Z" />
<glyph unicode="l" glyph-name="l" horiz-adv-x="597" d="M432 146Q432 94 482 77T532 21Q532 -20 487 -20H148Q102 -20 102 21Q102 59 152 76T202 146V1257Q202 1308 152 1326T102 1383Q102 1424 147 1424Q209 1427 271 1443T432 1493V146Z" />
<glyph unicode="m" glyph-name="m" horiz-adv-x="1797" d="M776 982Q870 982 953 919Q982 896 988 889Q1013 898 1049 911T1150 948T1273 976T1345 982Q1438 982 1521 920Q1651 820 1651 506V146Q1651 94 1701 77T1751 20Q1751 -20 1705 -20H1462Q1421 -20 1421
13V506Q1421 718 1336 801Q1285 851 1213 851Q1170 851 1134 839T1070 817T1039 805Q1082 716 1082 506V146Q1082 94 1132 77T1182 20Q1182 -20 1137 -20H798Q752 -20 752 20Q752 59 802 76T852 146V506Q852 718 767 801Q716 851 644 851Q601 851 558 837T481 809T429
789V146Q429 94 479 77T529 20Q529 -20 484 -20H145Q99 -20 99 20Q99 59 149 76T199 146V786Q199 836 149 854T99 911Q99 952 144 952Q206 955 268 972T429 1022V893Q441 897 478 911T581 948T704 976T776 982Z" />
<glyph unicode="n" glyph-name="n" horiz-adv-x="1191" d="M780 982Q874 982 957 919Q1086 820 1086 506V146Q1086 94 1136 77T1186 20Q1186 -20 1141 -20H898Q856 -20 856 13V506Q856 718 771 801Q720 851 648 851Q605 851 568 839T498 814T439 791Q416 783 412
781V146Q412 94 462 77T512 20Q512 -20 467 -20H128Q82 -20 82 20Q82 59 132 76T182 146V786Q182 836 132 854T82 911Q82 952 127 952Q189 955 251 972T412 1022V885Q432 892 474 908T583 947T708 976T780 982Z" />
<glyph unicode="o" glyph-name="o" horiz-adv-x="1107" d="M1095 459Q1095 252 946 107T578 -45H562Q358 -45 210 105T62 462V465Q63 691 233 846Q256 867 296 881T395 916T508 957T599 976H603Q810 968 951 819T1095 465V459ZM569 869Q466 869 385 760T304 481Q304
311 386 190T580 63H593Q695 63 775 171T856 450Q856 620 773 741T580 869H569Z" />
<glyph unicode="p" glyph-name="p" horiz-adv-x="1197" d="M1160 572Q1164 531 1164 484Q1164 436 1154 367T1101 230T1014 128T939 82Q763 16 679 -14T573 -45H568Q505 -42 442 -23V-440Q442 -491 492 -509T542 -566Q542 -606 497 -606H158Q112 -606 112 -566Q112
-527 162 -509T212 -440V786Q212 836 162 854T112 911Q112 952 157 952Q219 955 281 972T442 1022V879L670 963Q702 975 722 976T743 977H752Q762 976 774 976Q927 969 1038 852Q1144 736 1160 572ZM638 76Q649 76 675 85T736 108T798 131T839 155Q895 216 914
295T933 421Q933 466 931 488Q920 626 857 712T702 825Q666 835 644 835Q621 835 607 834T569 824T503 800T442 777V158Q475 130 532 104T632 76H638Z" />
<glyph unicode="q" glyph-name="q" horiz-adv-x="1173" d="M514 -45H471Q316 -37 209 78T86 358Q82 401 82 448Q82 494 91 562T144 700T231 802T332 857T468 908T600 957T673 976H678Q747 973 796 957T846 941T868 940V930Q876 927 894 922T918 916Q922 916 933
925T955 948T981 962Q997 962 1020 954T1044 920V-440Q1044 -491 1094 -509T1144 -566Q1144 -606 1098 -606H759Q713 -606 713 -566Q713 -527 763 -509T813 -440V55L576 -32Q541 -45 514 -45ZM610 854Q595 854 570 845T509 822T447 798T407 775Q349 713 331 634T312
510Q312 465 314 442Q325 303 387 217T543 105Q578 95 601 95Q624 95 638 96T677 106T748 132T813 157V764Q780 793 719 822T613 854H610Z" />
<glyph unicode="r" glyph-name="r" horiz-adv-x="831" d="M453 595V146Q453 94 502 77T552 21Q552 -20 507 -20H168Q122 -20 122 21Q122 59 172 76T222 146V786Q222 836 172 854T122 911Q122 952 167 952Q229 955 291 972T453 1022V892L557 931Q634 960 678 975Q696
980 718 980Q760 980 838 953L813 669H724Q685 815 594 815Q584 815 575 814Q514 807 485 746T453 595Z" />
<glyph unicode="s" glyph-name="s" horiz-adv-x="884" d="M756 659H752Q723 661 708 696Q674 767 611 813T477 862H473Q419 862 366 835T301 750Q296 729 296 713Q296 661 352 634T519 581T744 504T867 283V273Q867 194 804 112T640 -5T445 -43H417Q290 -43 162
-6L76 227L79 251Q82 284 122 284H127Q153 279 169 247Q212 153 272 116T427 75H438Q504 75 583 106T665 218V224Q665 318 570 345T383 397T198 486T105 672V677Q106 842 229 910T491 979Q505 979 517 978Q671 970 820 878L797 692Q793 659 756 659Z" />
<glyph unicode="t" glyph-name="t" horiz-adv-x="682" d="M114 820Q70 820 68 860V862Q68 889 100 904Q119 913 158 934T210 960Q215 962 215 963Q215 965 207 965V1116Q207 1173 232 1196T312 1246T390 1273Q438 1273 438 1227V969L652 973Q692 973 692 943Q692
912 688 890Q674 826 618 826L438 827V220Q438 138 494 98T610 50V-19Q432 -19 320 12T207 250V824L114 820Z" />
<glyph unicode="u" glyph-name="u" horiz-adv-x="1239" d="M1090 146Q1090 94 1140 77T1190 21Q1190 -20 1144 -20H901Q859 -20 859 13V46Q840 39 797 23T716 -7Q621 -39 520 -49Q504 -50 490 -50Q397 -50 315 11Q185 110 185 425V786Q185 836 135 854T85 911Q85
952 130 952Q192 955 254 972T416 1022V425Q416 212 501 130Q552 80 624 80Q667 80 721 98Q740 104 774 117T831 139Q837 141 848 145L859 149V786Q859 836 809 854T759 911Q759 952 804 952Q866 955 928 972T1090 1022V146Z" />
<glyph unicode="v" glyph-name="v" horiz-adv-x="1036" d="M404 811L642 229L848 723Q856 741 856 758Q856 787 832 815L788 868L892 949Q904 962 921 962Q940 962 956 946L1012 889Q1034 866 1034 833Q1034 816 1027 794Q1011 746 979 681L672 -5Q666 -17 659
-26Q646 -39 628 -39H544Q522 -39 512 -24Q507 -19 502 -5T495 15L168 794Q154 826 127 844Q109 856 88 865T53 884Q42 891 33 907Q31 915 31 920Q31 925 33 933Q44 951 68 951H396Q411 951 428 941Q442 930 447 919Q449 912 449 908Q449 892 433 877Q403 850 401
844Q399 838 399 830Q399 821 404 811Z" />
<glyph unicode="w" glyph-name="w" horiz-adv-x="1647" d="M1459 723Q1467 741 1467 764Q1467 787 1443 815L1399 867L1501 949Q1513 961 1532 961Q1550 961 1566 947L1623 889Q1645 866 1645 841Q1645 816 1634 781T1590 681L1283 -5Q1277 -18 1268 -28T1239
-39H1155Q1134 -39 1126 -29T1113 -5T1105 14L900 504L672 -5Q666 -18 657 -28T628 -39H544Q523 -39 515 -29T502 -4T495 15L168 794Q154 826 131 841T88 865T54 883T36 903T31 920Q31 925 33 933Q44 951 68 951H396Q411 951 428 941Q442 929 445 921T449 903Q449
892 426 871T401 844T399 830Q399 821 404 811L642 229L829 676L779 794Q765 826 742 841T699 865T663 884T645 905T642 920Q642 925 644 933Q655 951 679 951H1007Q1022 951 1039 941Q1053 929 1056 921T1060 903Q1060 892 1037 871T1012 844T1010 830Q1010 821
1015 811L1253 229L1459 723Z" />
<glyph unicode="x" glyph-name="x" horiz-adv-x="1098" d="M167 108L445 448L187 823Q174 842 143 858Q124 868 106 875T74 890Q41 909 41 924Q41 949 81 949H403Q432 949 450 925Q456 916 456 906Q456 890 436 879Q431 876 431 868Q431 858 440 846L591 626L738
807Q830 919 857 942Q873 957 900 957Q931 957 976 934L1040 900Q1060 888 1060 869Q1060 860 1055 851L993 724Q931 757 900 772Q898 773 897 773Q887 773 866 747L671 509L949 106Q964 83 998 69Q1013 62 1028 55T1061 40Q1095 20 1095 5Q1095 -20 1055 -20H733Q704
-20 686 4Q680 14 680 22Q680 37 699 50Q704 53 705 61V62Q705 71 696 84L526 331L325 87Q310 66 310 55V52Q310 44 313 39Q316 31 316 26Q316 14 308 4Q292 -20 267 -20H59Q24 -20 24 5Q24 15 32 25Q50 47 93 58T167 108Z" />
<glyph unicode="y" glyph-name="y" horiz-adv-x="1036" d="M104 859T73 871T36 899T30 933Q30 951 68 951H396Q432 951 441 932T450 905Q450 882 429 871T403 849T399 829Q399 821 404 811L642 229L848 723Q856 741 856 764Q856 787 832 815L788 868L892 949Q904
962 922 962Q940 962 956 946L1012 889Q1034 866 1034 841Q1034 816 1023 781T979 681L485 -421Q454 -487 427 -536T345 -586L260 -583Q219 -576 219 -544L212 -411L288 -409Q339 -407 361 -363L517 -39Q521 -39 521 -37Q521 -34 516 -29Q507 -19 502 -5T495 15L168
794Q154 826 129 842Z" />
<glyph unicode="z" glyph-name="z" horiz-adv-x="1019" d="M978 869L364 99H752Q792 101 822 129T895 217Q928 261 949 261Q992 261 992 223V65Q992 6 971 -7T870 -20L185 -21Q108 -20 80 -11Q51 -4 51 21Q51 38 71 62L679 841H372Q332 841 305 813T236 726Q203
683 182 683Q138 683 138 720V879Q138 933 162 949T261 965H883Q997 965 997 913Q997 893 978 869Z" />
<glyph unicode="{" glyph-name="braceleft" horiz-adv-x="1024" d="M181 593Q151 595 139 614Q130 625 130 643Q130 648 131 655Q137 687 180 693Q322 705 371 758Q400 790 410 847T420 961V1173Q420 1246 435 1326T502 1456Q583 1536 799 1536Q832 1536 848 1517Q862
1497 862 1482Q862 1446 807 1446Q687 1444 647 1399Q620 1371 612 1314T604 1204V1061Q604 983 593 892T544 746Q481 656 413 642Q480 628 544 539Q582 483 593 393T604 223V80Q604 -67 647 -114Q688 -158 807 -160Q841 -160 853 -190Q856 -199 856 -207Q856 -220
846 -234Q831 -251 799 -251Q585 -251 502 -171Q450 -121 435 -42T420 112V323Q420 379 410 437T370 529Q340 560 287 574T181 593Z" />
<glyph unicode="|" glyph-name="bar" horiz-adv-x="1024" d="M450 1510H641V-247H450V1510Z" />
<glyph unicode="}" glyph-name="braceright" horiz-adv-x="1024" d="M811 593Q759 589 706 575T622 529Q593 496 583 438T572 323V112Q572 38 557 -41T490 -171Q407 -251 193 -251Q161 -251 146 -234Q136 -220 136 -207Q136 -199 139 -190Q151 -160 185 -160Q304
-158 345 -114Q388 -67 388 80V223Q388 302 399 392T448 539Q512 628 579 642Q511 656 448 746Q410 801 399 892T388 1061V1204Q388 1256 380 1313T345 1399Q305 1444 185 1446Q130 1446 130 1482Q130 1497 144 1517Q160 1536 193 1536Q409 1536 490 1456Q542 1406
557 1326T572 1173V961Q572 905 582 848T621 758Q670 705 812 693Q855 687 861 655Q862 648 862 643Q862 625 853 614Q841 595 811 593Z" />
<glyph unicode="~" glyph-name="asciitilde" horiz-adv-x="1024" d="M1011 722Q948 605 891 552Q823 490 747 490Q626 490 484 578Q416 620 357 620Q313 620 273 595Q261 587 245 577T211 551Q178 520 153 482Q139 461 114 461Q98 461 82 471Q58 483 58 506Q58
520 69 538Q116 610 168 691T337 773Q472 773 608 681Q670 639 729 639Q780 639 831 670Q881 699 919 769Q933 793 963 793Q971 793 976 791Q1010 786 1016 755Q1017 750 1017 745Q1017 735 1011 722Z" />
<glyph unicode="&#xa0;" glyph-name="nbspace" horiz-adv-x="550" />
<glyph unicode="&#xa1;" glyph-name="exclamdown" horiz-adv-x="550" d="M417 654T282 654T147 761V843Q147 949 282 949T417 843V761Q417 654 282 654ZM344 530L414 -425V-435Q414 -520 315 -520H252Q154 -520 154 -436V-425L224 530Q224 573 273 573H294Q344
573 344 530Z" />
<glyph unicode="&#xa2;" glyph-name="cent" horiz-adv-x="925" d="M528 1135H662V973Q801 958 927 877L909 697Q904 666 872 666H869Q840 668 826 700Q789 782 731 816Q700 834 662 842V92Q730 100 788 134Q862 178 883 179Q905 179 927 175Q934 156 934 142Q934
127 918 99T881 51Q793 -20 662 -39V-232H528V-44Q357 -34 235 64Q79 196 79 446Q79 502 87 565Q132 795 327 907Q417 958 528 972V1135ZM528 846Q457 835 418 797Q317 702 317 519Q317 491 320 459Q330 315 397 224Q459 143 528 110V846Z" />
<glyph unicode="&#xa3;" glyph-name="sterling" horiz-adv-x="1024" d="M122 108Q122 49 160 49Q199 49 218 87T248 159Q226 181 199 181Q122 181 122 108ZM89 804H238Q232 861 232 928Q232 986 238 1035Q251 1157 297 1245Q410 1463 663 1463Q740 1463 812 1425T921
1315Q938 1280 941 1238V1230Q941 1188 909 1156Q876 1123 836 1123Q801 1123 767 1151Q734 1175 728 1223T717 1300Q708 1354 648 1363Q632 1365 618 1365Q574 1365 544 1340Q488 1292 473 1224T457 1079Q457 1005 463 932T474 804H712Q752 804 752 769V699Q752
664 712 664H483Q484 650 484 615Q484 580 482 544Q476 461 457 387T425 249Q461 236 514 218T622 186Q680 172 728 172Q766 172 799 181Q866 199 906 260Q917 276 921 305T975 334Q1020 334 1020 291Q1020 255 1008 224T985 164Q946 64 859 2Q780 -51 692 -51Q680
-51 668 -50Q570 -42 487 14Q468 27 413 62L360 95Q318 31 247 -25Q210 -52 165 -52Q140 -52 115 -43Q45 -20 19 39Q9 62 9 90Q9 116 19 147Q37 211 75 242Q131 286 182 286H189Q232 283 264 281Q268 310 268 357V387Q265 448 263 510Q259 584 251 664H89Q49 664
49 699V769Q49 804 89 804Z" />
<glyph unicode="&#xa4;" glyph-name="currency" horiz-adv-x="1024" d="M538 712Q443 712 375 643T306 475Q306 376 374 308T538 239Q631 239 700 307T769 475Q769 574 700 643T538 712ZM538 842Q664 842 745 780L874 909Q886 921 903 921Q922 921 932 908L979
862Q988 851 988 840Q988 828 976 816L843 684Q909 598 909 476Q909 352 843 268L978 135Q988 123 988 112Q988 101 979 90L931 44Q919 31 902 31Q884 31 872 45L745 172Q665 111 538 111Q411 111 331 172L203 43Q191 31 174 31Q157 31 146 42L100 88Q88 100 88
112Q88 124 101 137L233 269Q168 354 168 476Q168 597 233 683L100 817Q88 827 88 840Q88 852 100 864L146 910Q157 921 174 921Q191 921 203 909L331 780Q412 842 538 842Z" />
<glyph unicode="&#xa5;" glyph-name="yen" horiz-adv-x="1366" d="M1189 520V401H848V146Q848 94 898 76T948 21Q948 -20 902 -20H563Q517 -20 517 21Q517 58 567 76T617 146V401H315V520H617V573Q617 599 611 622H315V741H548L243 1249Q223 1279 174 1309Q148
1322 122 1332T78 1353Q63 1361 54 1373Q47 1384 47 1394V1399Q51 1424 82 1424H421Q440 1424 456 1414Q470 1404 479 1392Q485 1382 485 1373Q485 1360 474 1347Q467 1338 459 1330T450 1313V1308Q450 1291 463 1272L778 773L1015 1133Q1042 1174 1046 1203Q1047
1206 1047 1210Q1047 1236 1026 1279L983 1365L1145 1436Q1158 1441 1170 1441Q1198 1441 1216 1414L1277 1312Q1290 1289 1290 1266Q1290 1225 1251 1185Q1199 1130 1140 1045L932 741H1189V622H859Q855 606 853 586Q849 552 848 520H1189Z" />
<glyph unicode="&#xa6;" glyph-name="brokenbar" horiz-adv-x="1024" d="M340 1510H522V793H340V1510ZM340 -243V473H522V-243H340Z" />
<glyph unicode="&#xa7;" glyph-name="section" horiz-adv-x="1024" d="M522 -345Q591 -340 654 -309T757 -215Q797 -150 797 -58V-47Q794 47 726 96Q694 120 649 133Q553 159 451 170T251 229Q162 271 119 351T76 524Q76 699 181 800Q76 881 76 1051Q76 1231 202
1348Q335 1470 533 1470Q548 1470 563 1469Q776 1460 938 1356L914 1151Q910 1115 874 1115Q866 1115 862 1116Q836 1118 821 1156Q785 1234 714 1288T565 1346H551Q473 1346 412 1318Q375 1300 350 1274Q327 1251 312 1215Q296 1183 290 1149Q284 1121 284 1094Q284
1061 293 1034Q310 978 353 948Q381 926 421 915Q444 909 476 904T545 893Q597 884 656 875T774 849Q875 815 923 763Q958 725 982 674Q1008 610 1008 534Q1008 365 906 254Q908 253 923 237Q959 196 982 147Q1008 83 1008 7Q1008 -196 840 -335Q754 -404 647 -440Q568
-467 467 -473Q447 -474 427 -474Q292 -474 157 -432L67 -178Q64 -170 64 -163Q64 -147 74 -135Q86 -113 112 -113H116Q142 -116 161 -152Q218 -273 301 -313Q369 -347 475 -347Q498 -347 522 -345ZM797 375T797 468V479Q794 574 727 623Q691 647 649 660Q568 681
482 692T330 725Q324 718 312 689Q296 658 290 622Q284 594 284 567Q284 534 293 507Q311 450 353 422Q380 399 421 389Q456 380 545 366Q597 357 656 348T774 322Q797 375 797 468Z" />
<glyph unicode="&#xa8;" glyph-name="dieresis" horiz-adv-x="1000" d="M650 1420T785 1420T920 1290Q920 1159 785 1159T650 1290Q650 1420 785 1420ZM180 1420T315 1420T450 1290Q450 1159 315 1159T180 1290Q180 1420 315 1420Z" />
<glyph unicode="&#xa9;" glyph-name="copyright" horiz-adv-x="1532" d="M792 1472Q1113 1472 1338 1248T1564 708Q1564 392 1339 168T792 -56Q471 -56 246 168T20 708Q20 1023 245 1247T792 1472ZM792 1352Q528 1352 340 1164T151 708Q151 439 339 252T792 64Q1056
64 1245 251T1434 708Q1434 976 1245 1164T792 1352ZM848 1155Q996 1155 1128 1069L1113 915Q1109 888 1081 888H1078Q1053 890 1041 917Q1009 987 960 1016T837 1046H818Q733 1042 690 1001Q604 920 604 766Q604 739 606 710Q615 586 672 508Q748 408 837 394Q852
392 867 393Q945 393 1008 431T1090 469Q1109 469 1128 466Q1134 450 1134 437T1121 400T1089 359Q987 276 818 276Q649 276 533 370Q399 484 399 699Q399 747 406 801Q445 999 612 1095Q707 1149 829 1155H848Z" />
<glyph unicode="&#xaa;" glyph-name="ordfeminine" horiz-adv-x="1100" d="M225 704H889Q951 704 951 658V605Q951 559 889 559H225Q163 559 163 605V658Q163 704 225 704ZM468 749H441Q339 754 266 830Q183 918 183 1069Q183 1104 189 1149T224 1239T281 1306T332
1338Q558 1422 573 1422H577Q622 1420 656 1409T708 1391T737 1383Q746 1383 760 1402Q769 1413 779 1413Q790 1413 805 1408T821 1385V875Q821 841 854 829T887 791T856 765H696Q668 765 668 787V815L510 757Q485 749 468 749ZM532 1342Q521 1342 482 1327T424
1305T398 1290Q360 1249 348 1197T336 1129V1108Q336 988 382 926Q445 841 534 841Q556 841 586 851T668 883V1281Q647 1301 606 1321T534 1342H532Z" />
<glyph unicode="&#xab;" glyph-name="guillemotleft" horiz-adv-x="1074" d="M568 603Q557 612 557 626Q557 637 565 650Q627 724 734 823T916 1000Q928 1012 943 1012T966 1004L1003 978Q1014 967 1014 957Q1014 948 1007 942L762 629L1011 311Q1015 304 1015
299Q1015 284 1001 275L966 251Q958 243 943 243T917 255Q832 339 742 427T568 603ZM108 603Q97 612 97 626Q97 637 105 650Q167 724 274 823T456 1000Q468 1012 483 1012T506 1004L543 978Q554 967 554 957Q554 948 547 942L302 629L551 311Q555 304 555 299Q555
284 541 275L506 251Q498 243 483 243T457 255Q372 339 282 427T108 603Z" />
<glyph unicode="&#xac;" glyph-name="logicalnot" horiz-adv-x="1100" d="M1084 321H917V755H66V907H1084V321Z" />
<glyph unicode="&#xad;" glyph-name="sfthyphen" horiz-adv-x="680" d="M186 389Q121 389 121 437V520Q121 569 187 569H543Q609 569 609 520V437Q609 389 544 389H186Z" />
<glyph unicode="&#xae;" glyph-name="registered" horiz-adv-x="1532" d="M792 1472Q1113 1472 1338 1248T1564 708Q1564 392 1339 168T792 -56Q471 -56 246 168T20 708Q20 1023 245 1247T792 1472ZM792 1352Q528 1352 340 1164T151 708Q151 439 339 252T792 64Q1056
64 1245 251T1434 708Q1434 976 1245 1164T792 1352ZM1144 331Q1155 321 1178 320Q1208 316 1208 295V293Q1204 269 1180 269H1020Q1006 269 969 318T884 433T788 566T711 669H638V368Q638 337 668 327T698 293Q698 269 673 269Q672 269 671 269H468Q440 269 440
293Q440 316 470 326T500 368V1035Q500 1066 470 1076T440 1111T466 1135Q467 1135 468 1135H822Q887 1135 958 1112T1068 1021Q1098 968 1098 894Q1097 823 1057 766Q1025 720 969 697T885 671L1144 331ZM638 1061V735H762Q801 735 840 746T908 785Q952 828 952
900Q952 969 906 1015Q858 1061 777 1061Q775 1061 774 1061H638Z" />
<glyph unicode="&#xaf;" glyph-name="overscore" horiz-adv-x="1000" d="M225 1367H825Q860 1367 860 1337V1251Q860 1220 825 1220H225Q190 1220 190 1251V1337Q190 1367 225 1367Z" />
<glyph unicode="0;" glyph-name="degree" horiz-adv-x="819" d="M431 1407Q571 1407 668 1310T765 1078Q765 943 668 846T431 749Q290 749 194 846T97 1078Q97 1213 193 1310T431 1407ZM431 1285Q349 1285 290 1225T230 1078Q230 991 289 932T431 872Q512
872 572 931T632 1078Q632 1164 572 1224T431 1285Z" />
<glyph unicode="1;" glyph-name="plusminus" horiz-adv-x="1100" d="M484 681H225Q163 681 163 727V780Q163 826 225 826H484V1086Q484 1148 530 1148H584Q630 1148 630 1086V826H889Q951 826 951 780V727Q951 681 889 681H630V422Q630 360 584 360H530Q484
360 484 422V681ZM225 258H889Q951 258 951 212V159Q951 113 889 113H225Q163 113 163 159V212Q163 258 225 258Z" />
<glyph unicode="2;" glyph-name="twosuperior" horiz-adv-x="880" d="M122 437V501Q122 562 166 610Q206 652 297 732Q350 774 401 821T509 924T593 1037T620 1131T602 1198Q563 1259 489 1282Q447 1295 406 1295Q364 1295 327 1288Q240 1270 183 1201Q165
1179 153 1150H114V1251Q123 1271 132 1285Q168 1333 230 1369T382 1418Q417 1422 452 1422Q565 1422 666 1375Q800 1312 802 1169V1167Q802 1074 742 992T601 835T437 683T322 562H587Q686 562 804 597L806 471Q748 441 692 439T589 437H122Z" />
<glyph unicode="3;" glyph-name="threesuperior" horiz-adv-x="880" d="M335 416Q225 416 138 472L133 601H170Q221 530 326 511Q364 504 411 503Q457 503 508 525Q584 558 612 620Q627 655 627 688Q627 720 616 748Q592 812 517 858T293 907L290 947Q357
965 425 989T525 1059T557 1145Q557 1157 554 1169Q543 1220 497 1260T378 1301Q372 1301 366 1300Q285 1296 233 1244Q209 1220 196 1181H157V1301Q231 1368 307 1393T454 1418Q651 1416 716 1287Q734 1250 734 1214Q734 1125 623 1037Q600 1019 588 1012Q686
972 737 899T788 752Q788 742 787 732Q772 584 602 483Q511 430 377 418Q355 416 335 416Z" />
<glyph unicode="4;" glyph-name="acute" horiz-adv-x="1000" d="M326 1087Q306 1077 295 1077Q252 1077 252 1114Q252 1128 264 1142L643 1402Q668 1420 699 1420Q798 1420 798 1326Q798 1261 737 1239Q331 1087 326 1087Z" />
<glyph unicode="5;" glyph-name="mu" horiz-adv-x="1325" d="M890 752Q890 802 839 820T788 877Q788 918 833 918Q885 920 942 934Q1010 949 1120 989V142Q1120 91 1171 76T1223 21Q1223 -20 1177 -20H889V55L718 -12Q652 -37 588 -37Q570 -37 553 -35Q472
-26 411 8Q339 47 327 47L325 43L330 23L377 -531V-534Q377 -573 332 -573H240Q195 -573 195 -532V804Q180 819 147 833T113 877Q113 918 158 918Q213 921 268 935Q303 942 335 953T438 988V424Q438 252 514 160Q573 87 658 87Q704 87 759 107L890 156V752Z" />
<glyph unicode="6;" glyph-name="paragraph" horiz-adv-x="1266" d="M727 1317V-214H937V1317H727ZM529 767Q511 761 458 761Q322 761 229 859T135 1093Q135 1228 228 1325T457 1424H1206Q1257 1424 1257 1379Q1257 1335 1196 1313T1135 1226V-122Q1135 -187
1196 -209T1257 -275Q1257 -320 1206 -320H458Q407 -320 407 -275Q407 -231 468 -209T529 -122V767Z" />
<glyph unicode="7;" glyph-name="middot" horiz-adv-x="512" d="M280 476Q217 476 175 518T133 618Q133 675 175 717T280 760Q343 760 385 718T427 618Q427 560 385 518T280 476Z" />
<glyph unicode="8;" glyph-name="cedilla" horiz-adv-x="1000" d="M455 -40Q455 -25 570 -25Q553 -68 553 -83Q553 -111 576 -132Q605 -159 645 -192Q709 -245 709 -331V-338Q704 -438 561 -449H550Q480 -449 384 -416L354 -278Q446 -348 482 -348Q509 -348
535 -332Q556 -319 556 -294Q556 -269 516 -231T449 -145Q436 -122 436 -98Q436 -67 455 -40Z" />
<glyph unicode="9;" glyph-name="onesuperior" horiz-adv-x="880" d="M330 464V467Q330 489 369 500Q410 512 410 546V1263H246V1315L594 1437V546Q594 511 634 500T674 465V464Q674 437 638 437H366Q330 437 330 464Z" />
<glyph unicode="a;" glyph-name="ordmasculine" horiz-adv-x="1100" d="M225 704H889Q951 704 951 658V605Q951 559 889 559H225Q163 559 163 605V658Q163 704 225 704ZM859 1081Q859 944 761 849T518 749H508Q373 749 276 848T178 1083V1085Q179 1234 290
1337Q305 1351 331 1360T397 1383T472 1409T532 1422H535Q672 1417 764 1319T859 1085V1081ZM512 1352Q444 1352 391 1280T337 1096Q337 984 391 904T519 820H528Q595 820 648 891T702 1075Q702 1187 647 1267T519 1352H512Z" />
<glyph unicode="b;" glyph-name="guillemotright" horiz-adv-x="1074" d="M544 603Q460 515 370 427T195 255Q184 243 169 243T146 251L111 275Q97 284 97 299Q97 304 101 311L350 629L105 942Q98 948 98 957Q98 967 109 978L146 1004Q154 1012 169 1012T196
1000Q270 924 378 824T547 650Q555 637 555 626Q555 612 544 603ZM1004 603Q920 515 830 427T655 255Q644 243 629 243T606 251L571 275Q557 284 557 299Q557 304 561 311L810 629L565 942Q558 948 558 957Q558 967 569 978L606 1004Q614 1012 629 1012T656 1000Q730
924 838 824T1007 650Q1015 637 1015 626Q1015 612 1004 603Z" />
<glyph unicode="c;" glyph-name="onequarter" horiz-adv-x="1300" d="M166 -52L1118 1440H1265L314 -52H166ZM190 770V772Q190 787 212 795Q235 803 236 827V1327H142V1363L341 1448V827Q341 803 364 795T387 770V770Q387 751 367 751H210Q190 751 190 770ZM1099
67V182H831V246L1104 655H1205V265H1298V182H1205V67Q1205 44 1237 36T1270 10V8Q1270 -9 1249 -9H1054Q1033 -8 1033 8Q1033 9 1033 10Q1034 28 1066 36T1099 67ZM1099 265V536L921 265H1099Z" />
<glyph unicode="d;" glyph-name="onehalf" horiz-adv-x="1300" d="M166 -52L1118 1440H1265L314 -52H166ZM190 770V772Q190 787 212 795Q235 803 236 827V1327H142V1363L341 1448V827Q341 803 364 795T387 770V770Q387 751 367 751H210Q190 751 190 770ZM870
-9V36Q870 79 896 111Q919 140 971 196Q1001 225 1030 258T1093 331T1141 409T1156 475Q1156 501 1146 521Q1123 563 1081 580Q1057 589 1034 589Q1010 589 988 584Q938 571 905 523Q894 507 888 488H866V558Q871 572 876 582Q897 615 932 641T1020 674Q1040 677
1060 677Q1125 677 1183 644Q1260 600 1261 501V500Q1261 435 1227 378T1146 268T1052 163T985 78H1138Q1195 78 1262 103L1263 15Q1229 -6 1197 -7T1139 -9H870Z" />
<glyph unicode="e;" glyph-name="threequarters" horiz-adv-x="1300" d="M166 -52L1118 1440H1265L314 -52H166ZM193 737Q130 737 79 776L76 865H98Q127 816 187 802Q209 797 236 797T292 812Q336 835 352 879Q361 903 361 926Q361 948 354 967Q340 1012 297
1044T168 1078L167 1106Q206 1118 244 1135T301 1184T320 1244Q320 1252 319 1261Q313 1297 286 1325T218 1353Q214 1353 211 1352Q165 1349 134 1313Q120 1296 113 1270H90V1353Q132 1400 176 1417T261 1434Q374 1433 412 1343Q423 1317 422 1292Q422 1230 358
1169Q345 1156 338 1151Q394 1123 423 1073T453 971Q453 964 453 956Q444 853 346 783Q294 746 217 738Q205 737 193 737ZM1099 67V182H831V246L1104 655H1205V265H1298V182H1205V67Q1205 44 1237 36T1270 10V8Q1270 -9 1249 -9H1054Q1033 -8 1033 8Q1033 9 1033
10Q1034 28 1066 36T1099 67ZM1099 265V536L921 265H1099Z" />
<glyph unicode="f;" glyph-name="questiondown" horiz-adv-x="784" d="M593 652T458 652T323 759V841Q323 947 458 947T593 841V759Q593 652 458 652ZM390 424Q390 479 401 513Q418 553 455 553Q491 553 506 508Q518 477 518 423V107Q389 16 345 -53Q301 -123
301 -218Q301 -321 342 -372Q379 -417 456 -417Q521 -417 550 -377Q584 -329 594 -203Q597 -171 623 -154Q648 -136 690 -136Q734 -136 759 -155Q781 -174 781 -212Q781 -352 687 -436T433 -520Q268 -520 172 -439Q78 -358 78 -219Q78 -45 255 65Q273 76 298 91Q353
126 367 155Q383 183 386 252L390 424Z" />
<glyph unicode="0;" glyph-name="Agrave" horiz-adv-x="1593" d="M1033 1537Q1028 1537 622 1689Q561 1711 561 1776Q561 1870 660 1870Q691 1870 716 1852L1095 1592Q1107 1578 1107 1564Q1107 1527 1064 1527Q1053 1527 1033 1537ZM1027 590L801 1117Q761
1020 698 868T582 590H1027ZM1606 20T1606 13T1600 -7T1567 -20H1229Q1211 -20 1195 -9T1176 11T1172 32T1186 56T1211 77T1225 94T1228 114Q1228 126 1222 141L1079 469H532Q502 397 467 312T409 175T386 113T385 96T387 81T397 64T406 44T409 28Q409 21 406 15Q394
-20 360 -20H102Q61 -20 61 10Q61 16 63 24Q69 52 104 67T176 99Q207 121 221 152L794 1447H891Q947 1315 1020 1144T1172 792T1324 440T1449 152Q1462 120 1491 101T1543 71T1581 51T1601 30Z" />
<glyph unicode="1;" glyph-name="Aacute" horiz-adv-x="1593" d="M635 1537Q615 1527 604 1527Q561 1527 561 1564Q561 1578 573 1592L952 1852Q977 1870 1008 1870Q1107 1870 1107 1776Q1107 1711 1046 1689Q640 1537 635 1537ZM1027 590L801 1117Q761 1020
698 868T582 590H1027ZM1606 20T1606 13T1600 -7T1567 -20H1229Q1211 -20 1195 -9T1176 11T1172 32T1186 56T1211 77T1225 94T1228 114Q1228 126 1222 141L1079 469H532Q502 397 467 312T409 175T386 113T385 96T387 81T397 64T406 44T409 28Q409 21 406 15Q394
-20 360 -20H102Q61 -20 61 10Q61 16 63 24Q69 52 104 67T176 99Q207 121 221 152L794 1447H891Q947 1315 1020 1144T1172 792T1324 440T1449 152Q1462 120 1491 101T1543 71T1581 51T1601 30Z" />
<glyph unicode="2;" glyph-name="Acircumflex" horiz-adv-x="1593" d="M505 1526L762 1913H907L1163 1526H1053L834 1725L616 1526H505ZM1027 590L801 1117Q761 1020 698 868T582 590H1027ZM1606 20T1606 13T1600 -7T1567 -20H1229Q1211 -20 1195 -9T1176
11T1172 32T1186 56T1211 77T1225 94T1228 114Q1228 126 1222 141L1079 469H532Q502 397 467 312T409 175T386 113T385 96T387 81T397 64T406 44T409 28Q409 21 406 15Q394 -20 360 -20H102Q61 -20 61 10Q61 16 63 24Q69 52 104 67T176 99Q207 121 221 152L794
1447H891Q947 1315 1020 1144T1172 792T1324 440T1449 152Q1462 120 1491 101T1543 71T1581 51T1601 30Z" />
<glyph unicode="3;" glyph-name="Atilde" horiz-adv-x="1593" d="M533 1588Q494 1597 492 1627V1630Q492 1651 512 1693L565 1810Q605 1900 700 1900Q794 1900 892 1805Q930 1766 966 1766Q997 1766 1031 1795Q1065 1823 1092 1892Q1102 1919 1130 1919Q1135
1919 1141 1918Q1175 1909 1176 1885V1877Q1176 1859 1172 1851Q1130 1735 1085 1676T980 1617Q890 1617 789 1708Q749 1747 713 1747Q686 1747 657 1724L637 1707Q601 1673 573 1611Q561 1588 533 1588ZM1027 590L801 1117Q761 1020 698 868T582 590H1027ZM1606
20T1606 13T1600 -7T1567 -20H1229Q1211 -20 1195 -9T1176 11T1172 32T1186 56T1211 77T1225 94T1228 114Q1228 126 1222 141L1079 469H532Q502 397 467 312T409 175T386 113T385 96T387 81T397 64T406 44T409 28Q409 21 406 15Q394 -20 360 -20H102Q61 -20 61
10Q61 16 63 24Q69 52 104 67T176 99Q207 121 221 152L794 1447H891Q947 1315 1020 1144T1172 792T1324 440T1449 152Q1462 120 1491 101T1543 71T1581 51T1601 30Z" />
<glyph unicode="4;" glyph-name="Adieresis" horiz-adv-x="1593" d="M464 1870T599 1870T734 1740Q734 1609 599 1609T464 1740Q464 1870 599 1870ZM934 1870T1069 1870T1204 1740Q1204 1609 1069 1609T934 1740Q934 1870 1069 1870ZM1027 590L801 1117Q761
1020 698 868T582 590H1027ZM1606 20T1606 13T1600 -7T1567 -20H1229Q1211 -20 1195 -9T1176 11T1172 32T1186 56T1211 77T1225 94T1228 114Q1228 126 1222 141L1079 469H532Q502 397 467 312T409 175T386 113T385 96T387 81T397 64T406 44T409 28Q409 21 406 15Q394
-20 360 -20H102Q61 -20 61 10Q61 16 63 24Q69 52 104 67T176 99Q207 121 221 152L794 1447H891Q947 1315 1020 1144T1172 792T1324 440T1449 152Q1462 120 1491 101T1543 71T1581 51T1601 30Z" />
<glyph unicode="5;" glyph-name="Aring" horiz-adv-x="1593" d="M891 1876Q861 1916 826 1916T768 1879Q740 1836 740 1777V1765Q743 1699 775 1656T843 1613Q878 1613 901 1649Q929 1704 929 1756Q929 1817 891 1876ZM741 1984T834 1984T990 1919T1054 1764Q1054
1674 991 1610T834 1545T678 1609T614 1764Q614 1853 677 1918ZM1027 590L801 1117Q761 1020 698 868T582 590H1027ZM1606 20T1606 13T1600 -7T1567 -20H1229Q1211 -20 1195 -9T1176 11T1172 32T1186 56T1211 77T1225 94T1228 114Q1228 126 1222 141L1079 469H532Q502
397 467 312T409 175T386 113T385 96T387 81T397 64T406 44T409 28Q409 21 406 15Q394 -20 360 -20H102Q61 -20 61 10Q61 16 63 24Q69 52 104 67T176 99Q207 121 221 152L794 1447H891Q947 1315 1020 1144T1172 792T1324 440T1449 152Q1462 120 1491 101T1543 71T1581
51T1601 30Z" />
<glyph unicode="6;" glyph-name="AE" horiz-adv-x="1933" d="M1139 114H1542Q1621 114 1681 181T1775 288Q1801 319 1824 319Q1870 319 1870 278Q1870 263 1867 253L1790 -20H851Q808 -20 808 21Q808 59 858 76T908 146V469H444Q403 395 355 310T258 139Q250
125 244 106Q241 97 241 88Q241 84 242 81Q243 70 248 62T255 46T257 33Q257 29 253 17Q234 -20 203 -20H-54Q-82 -20 -93 2V11Q-93 19 -88 30Q-75 46 -40 64Q-23 72 -6 80T30 99Q65 122 85 154L774 1323Q762 1326 722 1338T681 1383Q681 1424 727 1424H1807V1147Q1807
1106 1761 1106Q1736 1106 1702 1156Q1653 1224 1621 1257T1542 1291H1139V788H1343Q1389 788 1409 839T1473 891Q1518 891 1518 850V596Q1518 555 1473 555Q1430 555 1407 606T1337 657H1139V114ZM911 590L909 1305Q842 1165 712 940T512 590H911Z" />
<glyph unicode="7;" glyph-name="Ccedilla" horiz-adv-x="1405" d="M661 -33Q472 13 312 145Q67 348 67 704Q67 1047 304 1256T870 1465H873Q990 1464 1124 1438T1390 1328L1365 1106Q1357 1071 1320 1071H1316Q1288 1073 1268 1112Q1213 1231 1104 1286Q1002
1336 887 1336H867Q611 1325 465 1130Q332 952 332 735Q332 711 334 686Q348 460 490 278T874 85Q898 84 919 84Q1040 84 1118 120Q1206 162 1268 295Q1287 336 1323 336Q1331 336 1340 334Q1372 322 1372 292Q1372 281 1367 268L1277 17Q1168 -28 1066 -42T873
-57Q814 -57 758 -50Q750 -73 750 -83Q750 -111 773 -132Q802 -159 842 -192Q906 -245 906 -331V-338Q901 -438 758 -449H747Q677 -449 581 -416L551 -278Q643 -348 679 -348Q706 -348 732 -332Q753 -319 753 -294Q753 -268 713 -230T646 -145Q633 -122 633 -98Q633
-67 652 -40Q652 -36 661 -33Z" />
<glyph unicode="8;" glyph-name="Egrave" horiz-adv-x="1251" d="M885 1537Q880 1537 474 1689Q413 1711 413 1776Q413 1870 512 1870Q543 1870 568 1852L947 1592Q959 1578 959 1564Q959 1527 916 1527Q905 1527 885 1537ZM486 114H888Q968 114 1028 181T1122
288Q1148 319 1171 319Q1217 319 1217 278Q1217 263 1214 253L1137 -20H198Q155 -20 155 21Q155 59 205 76T255 146V1257Q255 1309 205 1326T155 1383Q155 1424 201 1424H1154V1147Q1154 1106 1108 1106Q1083 1106 1049 1156Q1000 1224 968 1257T888 1291H486V788H690Q736
788 756 839T820 891Q865 891 865 850V596Q865 555 820 555Q777 555 754 606T684 657H486V114Z" />
<glyph unicode="9;" glyph-name="Eacute" horiz-adv-x="1251" d="M487 1537Q467 1527 456 1527Q413 1527 413 1564Q413 1578 425 1592L804 1852Q829 1870 860 1870Q959 1870 959 1776Q959 1711 898 1689Q492 1537 487 1537ZM486 114H888Q968 114 1028 181T1122
288Q1148 319 1171 319Q1217 319 1217 278Q1217 263 1214 253L1137 -20H198Q155 -20 155 21Q155 59 205 76T255 146V1257Q255 1309 205 1326T155 1383Q155 1424 201 1424H1154V1147Q1154 1106 1108 1106Q1083 1106 1049 1156Q1000 1224 968 1257T888 1291H486V788H690Q736
788 756 839T820 891Q865 891 865 850V596Q865 555 820 555Q777 555 754 606T684 657H486V114Z" />
<glyph unicode="a;" glyph-name="Ecircumflex" horiz-adv-x="1251" d="M357 1526L614 1913H759L1015 1526H905L686 1725L468 1526H357ZM486 114H888Q968 114 1028 181T1122 288Q1148 319 1171 319Q1217 319 1217 278Q1217 263 1214 253L1137 -20H198Q155 -20
155 21Q155 59 205 76T255 146V1257Q255 1309 205 1326T155 1383Q155 1424 201 1424H1154V1147Q1154 1106 1108 1106Q1083 1106 1049 1156Q1000 1224 968 1257T888 1291H486V788H690Q736 788 756 839T820 891Q865 891 865 850V596Q865 555 820 555Q777 555 754
606T684 657H486V114Z" />
<glyph unicode="b;" glyph-name="Edieresis" horiz-adv-x="1251" d="M316 1870T451 1870T586 1740Q586 1609 451 1609T316 1740Q316 1870 451 1870ZM786 1870T921 1870T1056 1740Q1056 1609 921 1609T786 1740Q786 1870 921 1870ZM486 114H888Q968 114 1028
181T1122 288Q1148 319 1171 319Q1217 319 1217 278Q1217 263 1214 253L1137 -20H198Q155 -20 155 21Q155 59 205 76T255 146V1257Q255 1309 205 1326T155 1383Q155 1424 201 1424H1154V1147Q1154 1106 1108 1106Q1083 1106 1049 1156Q1000 1224 968 1257T888 1291H486V788H690Q736
788 756 839T820 891Q865 891 865 850V596Q865 555 820 555Q777 555 754 606T684 657H486V114Z" />
<glyph unicode="c;" glyph-name="Igrave" horiz-adv-x="690" d="M569 1537Q564 1537 158 1689Q97 1711 97 1776Q97 1870 196 1870Q227 1870 252 1852L631 1592Q643 1578 643 1564Q643 1527 600 1527Q589 1527 569 1537ZM485 1257V147Q485 94 535 77T585 21Q585
-20 539 -20H200Q155 -20 155 21Q155 59 205 76T255 146V1257Q255 1309 205 1326T155 1383Q155 1424 201 1424H539Q585 1424 585 1383Q585 1344 535 1327T485 1257Z" />
<glyph unicode="d;" glyph-name="Iacute" horiz-adv-x="690" d="M171 1537Q151 1527 140 1527Q97 1527 97 1564Q97 1578 109 1592L488 1852Q513 1870 544 1870Q643 1870 643 1776Q643 1711 582 1689Q176 1537 171 1537ZM485 1257V147Q485 94 535 77T585 21Q585
-20 539 -20H200Q155 -20 155 21Q155 59 205 76T255 146V1257Q255 1309 205 1326T155 1383Q155 1424 201 1424H539Q585 1424 585 1383Q585 1344 535 1327T485 1257Z" />
<glyph unicode="e;" glyph-name="Icircumflex" horiz-adv-x="690" d="M41 1526L298 1913H443L699 1526H589L370 1725L152 1526H41ZM485 1257V147Q485 94 535 77T585 21Q585 -20 539 -20H200Q155 -20 155 21Q155 59 205 76T255 146V1257Q255 1309 205 1326T155
1383Q155 1424 201 1424H539Q585 1424 585 1383Q585 1344 535 1327T485 1257Z" />
<glyph unicode="f;" glyph-name="Idieresis" horiz-adv-x="690" d="M0 1870T135 1870T270 1740Q270 1609 135 1609T0 1740Q0 1870 135 1870ZM470 1870T605 1870T740 1740Q740 1609 605 1609T470 1740Q470 1870 605 1870ZM485 1257V147Q485 94 535 77T585 21Q585
-20 539 -20H200Q155 -20 155 21Q155 59 205 76T255 146V1257Q255 1309 205 1326T155 1383Q155 1424 201 1424H539Q585 1424 585 1383Q585 1344 535 1327T485 1257Z" />
<glyph unicode="&#xd0;" glyph-name="Eth" horiz-adv-x="1585" d="M239 1427L552 1433Q706 1433 878 1424T1198 1350T1441 1154Q1549 1002 1552 727Q1552 558 1483 409T1277 155Q1046 -23 714 -27H634Q576 -27 525 -26H408Q324 -26 281 -23H258Q219 -23 155 -29Q108
-29 108 11T158 69T208 139V665H71Q25 665 25 704V743Q25 783 46 783H208V1262Q208 1313 158 1330T108 1387Q108 1428 154 1428Q196 1427 239 1427ZM449 116Q553 96 664 96Q706 96 747 99Q1082 128 1218 387Q1290 524 1290 736V769Q1277 1073 1099 1201Q949 1314
702 1314H676Q555 1314 449 1297V783H741Q786 783 786 743V704Q786 665 741 665H449V116Z" />
<glyph unicode="&#xd1;" glyph-name="Ntilde" horiz-adv-x="1644" d="M574 1588Q535 1597 533 1627V1630Q533 1651 553 1693L606 1810Q646 1900 741 1900Q835 1900 933 1805Q971 1766 1007 1766Q1038 1766 1072 1795Q1106 1823 1133 1892Q1143 1919 1171 1919Q1176
1919 1182 1918Q1216 1909 1217 1885V1877Q1217 1859 1213 1851Q1171 1735 1126 1676T1021 1617Q931 1617 830 1708Q790 1747 754 1747Q727 1747 698 1724L678 1707Q642 1673 614 1611Q602 1588 574 1588ZM1369 271V1257Q1369 1308 1320 1326T1270 1383Q1270 1424
1315 1424H1570Q1616 1424 1616 1383Q1616 1344 1566 1326T1516 1257L1515 -70L1297 -17L380 1121V146Q380 94 430 77T480 21Q480 -20 434 -20H180Q134 -20 134 21Q134 59 184 76T234 146V1257Q234 1308 184 1326T134 1383Q134 1424 180 1424H451L1369 271Z" />
<glyph unicode="&#xd2;" glyph-name="Ograve" horiz-adv-x="1610" d="M1033 1537Q1028 1537 622 1689Q561 1711 561 1776Q561 1870 660 1870Q691 1870 716 1852L1095 1592Q1107 1578 1107 1564Q1107 1527 1064 1527Q1053 1527 1033 1537ZM833 1466H843Q1177 1466
1407 1261Q1620 1070 1620 760Q1620 732 1618 704Q1597 353 1373 158T832 -55Q809 -56 785 -56Q496 -56 274 143Q48 345 48 669Q48 687 49 706Q61 1053 276 1257T833 1466ZM833 1338Q541 1337 424 1152T307 702T454 253T833 66H838Q1063 66 1210 260Q1358 457 1358
696V702Q1356 946 1233 1142T833 1338Z" />
<glyph unicode="&#xd3;" glyph-name="Oacute" horiz-adv-x="1610" d="M635 1537Q615 1527 604 1527Q561 1527 561 1564Q561 1578 573 1592L952 1852Q977 1870 1008 1870Q1107 1870 1107 1776Q1107 1711 1046 1689Q640 1537 635 1537ZM833 1466H843Q1177 1466 1407
1261Q1620 1070 1620 760Q1620 732 1618 704Q1597 353 1373 158T832 -55Q809 -56 785 -56Q496 -56 274 143Q48 345 48 669Q48 687 49 706Q61 1053 276 1257T833 1466ZM833 1338Q541 1337 424 1152T307 702T454 253T833 66H838Q1063 66 1210 260Q1358 457 1358 696V702Q1356
946 1233 1142T833 1338Z" />
<glyph unicode="&#xd4;" glyph-name="Ocircumflex" horiz-adv-x="1610" d="M505 1526L762 1913H907L1163 1526H1053L834 1725L616 1526H505ZM833 1466H843Q1177 1466 1407 1261Q1620 1070 1620 760Q1620 732 1618 704Q1597 353 1373 158T832 -55Q809 -56 785 -56Q496
-56 274 143Q48 345 48 669Q48 687 49 706Q61 1053 276 1257T833 1466ZM833 1338Q541 1337 424 1152T307 702T454 253T833 66H838Q1063 66 1210 260Q1358 457 1358 696V702Q1356 946 1233 1142T833 1338Z" />
<glyph unicode="&#xd5;" glyph-name="Otilde" horiz-adv-x="1610" d="M533 1588Q494 1597 492 1627V1630Q492 1651 512 1693L565 1810Q605 1900 700 1900Q794 1900 892 1805Q930 1766 966 1766Q997 1766 1031 1795Q1065 1823 1092 1892Q1102 1919 1130 1919Q1135
1919 1141 1918Q1175 1909 1176 1885V1877Q1176 1859 1172 1851Q1130 1735 1085 1676T980 1617Q890 1617 789 1708Q749 1747 713 1747Q686 1747 657 1724L637 1707Q601 1673 573 1611Q561 1588 533 1588ZM833 1466H843Q1177 1466 1407 1261Q1620 1070 1620 760Q1620
732 1618 704Q1597 353 1373 158T832 -55Q809 -56 785 -56Q496 -56 274 143Q48 345 48 669Q48 687 49 706Q61 1053 276 1257T833 1466ZM833 1338Q541 1337 424 1152T307 702T454 253T833 66H838Q1063 66 1210 260Q1358 457 1358 696V702Q1356 946 1233 1142T833
1338Z" />
<glyph unicode="&#xd6;" glyph-name="Odieresis" horiz-adv-x="1610" d="M464 1870T599 1870T734 1740Q734 1609 599 1609T464 1740Q464 1870 599 1870ZM934 1870T1069 1870T1204 1740Q1204 1609 1069 1609T934 1740Q934 1870 1069 1870ZM833 1466H843Q1177 1466
1407 1261Q1620 1070 1620 760Q1620 732 1618 704Q1597 353 1373 158T832 -55Q809 -56 785 -56Q496 -56 274 143Q48 345 48 669Q48 687 49 706Q61 1053 276 1257T833 1466ZM833 1338Q541 1337 424 1152T307 702T454 253T833 66H838Q1063 66 1210 260Q1358 457 1358
696V702Q1356 946 1233 1142T833 1338Z" />
<glyph unicode="&#xd7;" glyph-name="multiply" horiz-adv-x="1100" d="M557 529L374 346Q349 321 327 321Q311 321 297 334L260 372Q246 386 246 402Q246 423 271 448L454 631L271 815Q246 840 246 862Q246 878 259 892L297 930Q311 944 327 944Q349 944 374
918L558 735L741 918Q766 943 787 943Q803 943 817 929L855 892Q869 878 869 862Q869 840 843 815L660 632L843 449Q868 424 868 402Q868 386 855 372L817 334Q803 320 787 320Q765 320 740 346L557 529Z" />
<glyph unicode="&#xd8;" glyph-name="Oslash" horiz-adv-x="1610" d="M833 1466H843Q1165 1466 1391 1275L1568 1443Q1582 1455 1598 1455Q1616 1455 1631 1442L1666 1404Q1679 1393 1679 1378Q1679 1365 1666 1352L1484 1180Q1620 1008 1620 760Q1620 732 1618
704Q1596 353 1372 158T832 -55Q809 -56 785 -56Q535 -56 335 93L194 -40Q181 -53 162 -53Q144 -53 129 -38L94 -2Q83 9 83 23T95 49L235 181Q48 375 48 669Q48 687 49 706Q61 1054 276 1258T833 1466ZM833 1338Q541 1337 424 1152T307 702Q307 494 398 336L1239
1132Q1236 1137 1233 1142Q1110 1338 833 1338ZM476 227Q618 68 833 66H838Q1063 66 1210 260Q1358 457 1358 696V702Q1357 865 1301 1007L476 227Z" />
<glyph unicode="&#xd9;" glyph-name="Ugrave" horiz-adv-x="1554" d="M1021 1537Q1016 1537 610 1689Q549 1711 549 1776Q549 1870 648 1870Q679 1870 704 1852L1083 1592Q1095 1578 1095 1564Q1095 1527 1052 1527Q1041 1527 1021 1537ZM234 588V1258Q234 1309
184 1326T134 1383Q134 1424 180 1424H519Q564 1424 564 1383Q564 1344 515 1328T466 1260V721Q466 569 476 453T526 258Q564 183 642 145T864 106Q1111 106 1198 301Q1264 443 1264 721V1257Q1264 1308 1214 1326T1164 1383Q1164 1424 1210 1424H1465Q1510 1424
1510 1383Q1510 1344 1461 1326T1411 1257V588Q1410 437 1383 311T1282 97Q1147 -59 864 -59Q689 -59 563 -26T360 98Q234 244 234 588Z" />
<glyph unicode="&#xda;" glyph-name="Uacute" horiz-adv-x="1554" d="M623 1537Q603 1527 592 1527Q549 1527 549 1564Q549 1578 561 1592L940 1852Q965 1870 996 1870Q1095 1870 1095 1776Q1095 1711 1034 1689Q628 1537 623 1537ZM234 588V1258Q234 1309 184
1326T134 1383Q134 1424 180 1424H519Q564 1424 564 1383Q564 1344 515 1328T466 1260V721Q466 569 476 453T526 258Q564 183 642 145T864 106Q1111 106 1198 301Q1264 443 1264 721V1257Q1264 1308 1214 1326T1164 1383Q1164 1424 1210 1424H1465Q1510 1424 1510
1383Q1510 1344 1461 1326T1411 1257V588Q1410 437 1383 311T1282 97Q1147 -59 864 -59Q689 -59 563 -26T360 98Q234 244 234 588Z" />
<glyph unicode="&#xdb;" glyph-name="Ucircumflex" horiz-adv-x="1554" d="M493 1526L750 1913H895L1151 1526H1041L822 1725L604 1526H493ZM234 588V1258Q234 1309 184 1326T134 1383Q134 1424 180 1424H519Q564 1424 564 1383Q564 1344 515 1328T466 1260V721Q466
569 476 453T526 258Q564 183 642 145T864 106Q1111 106 1198 301Q1264 443 1264 721V1257Q1264 1308 1214 1326T1164 1383Q1164 1424 1210 1424H1465Q1510 1424 1510 1383Q1510 1344 1461 1326T1411 1257V588Q1410 437 1383 311T1282 97Q1147 -59 864 -59Q689
-59 563 -26T360 98Q234 244 234 588Z" />
<glyph unicode="&#xdc;" glyph-name="Udieresis" horiz-adv-x="1554" d="M452 1870T587 1870T722 1740Q722 1609 587 1609T452 1740Q452 1870 587 1870ZM922 1870T1057 1870T1192 1740Q1192 1609 1057 1609T922 1740Q922 1870 1057 1870ZM234 588V1258Q234 1309
184 1326T134 1383Q134 1424 180 1424H519Q564 1424 564 1383Q564 1344 515 1328T466 1260V721Q466 569 476 453T526 258Q564 183 642 145T864 106Q1111 106 1198 301Q1264 443 1264 721V1257Q1264 1308 1214 1326T1164 1383Q1164 1424 1210 1424H1465Q1510 1424
1510 1383Q1510 1344 1461 1326T1411 1257V588Q1410 437 1383 311T1282 97Q1147 -59 864 -59Q689 -59 563 -26T360 98Q234 244 234 588Z" />
<glyph unicode="&#xdd;" glyph-name="Yacute" horiz-adv-x="1366" d="M470 1537Q450 1527 439 1527Q396 1527 396 1564Q396 1578 408 1592L787 1852Q812 1870 843 1870Q942 1870 942 1776Q942 1711 881 1689Q475 1537 470 1537ZM591 669L243 1249Q223 1279 174
1309Q148 1322 122 1332T78 1353Q63 1361 54 1373Q47 1384 47 1394V1399Q51 1424 82 1424H421Q440 1424 456 1414Q470 1404 479 1392Q485 1382 485 1373Q485 1360 474 1347Q467 1338 459 1330T450 1313V1308Q450 1291 463 1272L778 773L1015 1133Q1042 1174 1046
1203Q1047 1206 1047 1210Q1047 1236 1026 1279L983 1365L1145 1436Q1158 1441 1170 1441Q1198 1441 1216 1414L1277 1312Q1290 1289 1290 1266Q1290 1225 1251 1185Q1199 1130 1140 1045L874 657Q858 633 853 587T848 497V146Q848 94 898 77T948 21Q948 -20 902
-20H563Q517 -20 517 21Q517 59 567 76T617 146V573Q617 627 591 669Z" />
<glyph unicode="&#xde;" glyph-name="Thorn" horiz-adv-x="1151" d="M401 1257V1108H686Q794 1108 912 1070T1097 918Q1147 829 1147 706Q1145 588 1079 493Q1021 411 915 371T722 331H401V146Q401 94 451 77T501 21Q501 -20 455 -20H116Q71 -20 71 21Q71 59 121
76T171 146V1257Q171 1308 121 1326T71 1383Q71 1424 117 1424H455Q501 1424 501 1383Q501 1344 451 1326T401 1257ZM401 441H587Q652 441 717 459T830 525Q904 596 904 716Q902 832 827 907Q746 985 607 985H401V441Z" />
<glyph unicode="&#xdf;" glyph-name="germandbls" horiz-adv-x="1269" d="M527 52L464 225L466 248Q468 282 509 282H514Q539 277 555 245Q599 151 659 114T813 73H825Q891 73 971 104Q1049 135 1052 216V222Q1052 316 967 340Q861 370 781 393Q678 421 587 483Q492
547 492 672V675Q492 782 561 835T693 947Q753 1002 765 1095Q767 1114 767 1133Q767 1201 732 1251Q692 1307 605 1316Q594 1317 583 1317Q515 1317 478 1268Q447 1226 443 1160T438 1027V146Q438 94 488 77Q515 67 527 52ZM538 22V21Q538 -20 492 -20H153Q107
-20 107 21Q107 59 157 76T207 146V1027Q207 1119 230 1207T313 1362Q421 1486 580 1486Q615 1486 652 1480Q839 1447 928 1272Q962 1204 962 1140Q962 1040 878 950Q822 890 761 848T688 748Q683 727 683 711Q683 659 727 638Q795 604 886 583Q1018 554 1131 502T1254
281V269Q1254 190 1193 113Q1127 27 1002 -16Q925 -42 832 -45H804Q678 -45 549 -8L538 22Z" />
<glyph unicode="&#xe0;" glyph-name="agrave" horiz-adv-x="1155" d="M794 1087Q789 1087 383 1239Q322 1261 322 1326Q322 1420 421 1420Q452 1420 477 1402L856 1142Q868 1128 868 1114Q868 1077 825 1077Q814 1077 794 1087ZM591 854Q575 854 515 831T427 798T388
775Q330 713 312 634T293 532V500Q293 318 363 224Q458 95 593 95Q627 95 672 111T797 158V762Q765 792 703 822T594 854H591ZM494 -45H452Q298 -37 188 79Q62 212 62 440Q62 493 72 562T124 699T211 800T287 848Q629 976 652 976H658Q726 973 778 956T858 928T901
916Q915 916 936 945Q949 962 965 962T1004 954T1028 920V146Q1028 94 1078 77T1128 20Q1128 -20 1082 -20H839Q797 -20 797 13V56L557 -32Q520 -45 494 -45Z" />
<glyph unicode="&#xe1;" glyph-name="aacute" horiz-adv-x="1155" d="M396 1087Q376 1077 365 1077Q322 1077 322 1114Q322 1128 334 1142L713 1402Q738 1420 769 1420Q868 1420 868 1326Q868 1261 807 1239Q401 1087 396 1087ZM591 854Q575 854 515 831T427 798T388
775Q330 713 312 634T293 532V500Q293 318 363 224Q458 95 593 95Q627 95 672 111T797 158V762Q765 792 703 822T594 854H591ZM494 -45H452Q298 -37 188 79Q62 212 62 440Q62 493 72 562T124 699T211 800T287 848Q629 976 652 976H658Q726 973 778 956T858 928T901
916Q915 916 936 945Q949 962 965 962T1004 954T1028 920V146Q1028 94 1078 77T1128 20Q1128 -20 1082 -20H839Q797 -20 797 13V56L557 -32Q520 -45 494 -45Z" />
<glyph unicode="&#xe2;" glyph-name="acircumflex" horiz-adv-x="1155" d="M266 1076L523 1463H668L924 1076H814L595 1275L377 1076H266ZM591 854Q575 854 515 831T427 798T388 775Q330 713 312 634T293 532V500Q293 318 363 224Q458 95 593 95Q627 95 672 111T797
158V762Q765 792 703 822T594 854H591ZM494 -45H452Q298 -37 188 79Q62 212 62 440Q62 493 72 562T124 699T211 800T287 848Q629 976 652 976H658Q726 973 778 956T858 928T901 916Q915 916 936 945Q949 962 965 962T1004 954T1028 920V146Q1028 94 1078 77T1128
20Q1128 -20 1082 -20H839Q797 -20 797 13V56L557 -32Q520 -45 494 -45Z" />
<glyph unicode="&#xe3;" glyph-name="atilde" horiz-adv-x="1155" d="M294 1138Q255 1147 253 1177V1180Q253 1201 273 1243L326 1360Q366 1450 461 1450Q555 1450 653 1355Q691 1316 727 1316Q758 1316 792 1345Q826 1373 853 1442Q863 1469 891 1469Q896 1469
902 1468Q936 1459 937 1435V1427Q937 1409 933 1401Q891 1285 846 1226T741 1167Q651 1167 550 1258Q510 1297 474 1297Q447 1297 418 1274L398 1257Q362 1223 334 1161Q322 1138 294 1138ZM591 854Q575 854 515 831T427 798T388 775Q330 713 312 634T293 532V500Q293
318 363 224Q458 95 593 95Q627 95 672 111T797 158V762Q765 792 703 822T594 854H591ZM494 -45H452Q298 -37 188 79Q62 212 62 440Q62 493 72 562T124 699T211 800T287 848Q629 976 652 976H658Q726 973 778 956T858 928T901 916Q915 916 936 945Q949 962 965
962T1004 954T1028 920V146Q1028 94 1078 77T1128 20Q1128 -20 1082 -20H839Q797 -20 797 13V56L557 -32Q520 -45 494 -45Z" />
<glyph unicode="&#xe4;" glyph-name="adieresis" horiz-adv-x="1155" d="M225 1420T360 1420T495 1290Q495 1159 360 1159T225 1290Q225 1420 360 1420ZM695 1420T830 1420T965 1290Q965 1159 830 1159T695 1290Q695 1420 830 1420ZM591 854Q575 854 515 831T427
798T388 775Q330 713 312 634T293 532V500Q293 318 363 224Q458 95 593 95Q627 95 672 111T797 158V762Q765 792 703 822T594 854H591ZM494 -45H452Q298 -37 188 79Q62 212 62 440Q62 493 72 562T124 699T211 800T287 848Q629 976 652 976H658Q726 973 778 956T858
928T901 916Q915 916 936 945Q949 962 965 962T1004 954T1028 920V146Q1028 94 1078 77T1128 20Q1128 -20 1082 -20H839Q797 -20 797 13V56L557 -32Q520 -45 494 -45Z" />
<glyph unicode="&#xe5;" glyph-name="aring" horiz-adv-x="1155" d="M652 1426Q622 1466 587 1466T529 1429Q501 1386 501 1327V1315Q504 1249 536 1206T604 1163Q639 1163 662 1199Q690 1254 690 1306Q690 1367 652 1426ZM502 1534T595 1534T751 1469T815 1314Q815
1224 752 1160T595 1095T439 1159T375 1314Q375 1403 438 1468ZM591 854Q575 854 515 831T427 798T388 775Q330 713 312 634T293 532V500Q293 318 363 224Q458 95 593 95Q627 95 672 111T797 158V762Q765 792 703 822T594 854H591ZM494 -45H452Q298 -37 188 79Q62
212 62 440Q62 493 72 562T124 699T211 800T287 848Q629 976 652 976H658Q726 973 778 956T858 928T901 916Q915 916 936 945Q949 962 965 962T1004 954T1028 920V146Q1028 94 1078 77T1128 20Q1128 -20 1082 -20H839Q797 -20 797 13V56L557 -32Q520 -45 494 -45Z"
/>
<glyph unicode="&#xe6;" glyph-name="ae" horiz-adv-x="1762" d="M1299 980Q1508 980 1618 860T1729 551Q1729 510 1725 484T1661 458H1048Q1052 321 1126 221T1310 98Q1342 91 1375 91Q1464 91 1544 134T1646 177Q1667 177 1676 168T1685 144Q1685 129 1669 98T1632
50Q1516 -51 1319 -51Q1059 -49 929 98L557 -32Q520 -45 494 -45H452Q298 -37 190 77Q81 193 66 358Q62 400 62 447Q62 493 72 562T124 699T211 800T287 848Q368 878 448 908T580 957T652 976H658Q726 973 822 942Q933 901 982 877Q1096 978 1295 980H1299ZM591
854Q576 854 551 845T490 822T427 798T388 775Q330 713 312 634T293 510Q293 465 295 442Q306 303 369 217T524 105Q558 95 581 95Q604 95 619 96T658 106T732 133T797 158V762Q765 792 703 822T594 854H591ZM1526 571Q1526 669 1476 760T1301 852H1290Q1165 848
1109 758T1049 571H1526Z" />
<glyph unicode="&#xe7;" glyph-name="ccedilla" horiz-adv-x="925" d="M601 976Q773 976 927 877L909 697Q904 666 872 666H869Q840 668 826 700Q789 782 731 816T589 850H566Q467 845 418 797Q317 702 317 519Q317 491 320 459Q330 315 397 224Q485 108 588 92Q605
90 623 90Q714 90 788 134T883 179Q905 179 927 175Q934 156 934 142Q934 127 918 99T881 51Q762 -45 566 -45Q552 -45 538 -44Q528 -71 528 -83Q528 -111 551 -132Q580 -159 620 -192Q684 -245 684 -331V-338Q679 -438 536 -449H525Q455 -449 359 -416L329 -278Q421
-348 457 -348Q484 -348 510 -332Q531 -319 531 -294Q531 -268 491 -230T424 -145Q411 -122 411 -98Q411 -67 430 -40Q430 -36 440 -32Q324 -8 235 64Q79 196 79 446Q79 502 87 565Q132 795 327 907Q437 970 579 976H601Z" />
<glyph unicode="&#xe8;" glyph-name="egrave" horiz-adv-x="1004" d="M726 1087Q721 1087 315 1239Q254 1261 254 1326Q254 1420 353 1420Q384 1420 409 1402L788 1142Q800 1128 800 1114Q800 1077 757 1077Q746 1077 726 1087ZM788 571Q788 669 739 760T564 852H553Q428
848 372 758T312 571H788ZM562 980Q771 980 881 860T992 551Q991 510 988 484T923 458H311Q314 321 388 221T573 98Q605 91 638 91Q726 91 805 134T906 177T937 169T948 145Q948 129 934 102T912 66T896 50Q779 -51 581 -51Q305 -49 168 125Q62 259 62 441Q62 495
71 553Q100 744 226 861T558 980H562Z" />
<glyph unicode="&#xe9;" glyph-name="eacute" horiz-adv-x="1004" d="M328 1087Q308 1077 297 1077Q254 1077 254 1114Q254 1128 266 1142L645 1402Q670 1420 701 1420Q800 1420 800 1326Q800 1261 739 1239Q333 1087 328 1087ZM788 571Q788 669 739 760T564 852H553Q428
848 372 758T312 571H788ZM562 980Q771 980 881 860T992 551Q991 510 988 484T923 458H311Q314 321 388 221T573 98Q605 91 638 91Q726 91 805 134T906 177T937 169T948 145Q948 129 934 102T912 66T896 50Q779 -51 581 -51Q305 -49 168 125Q62 259 62 441Q62 495
71 553Q100 744 226 861T558 980H562Z" />
<glyph unicode="&#xea;" glyph-name="ecircumflex" horiz-adv-x="1004" d="M198 1076L455 1463H600L856 1076H746L527 1275L309 1076H198ZM788 571Q788 669 739 760T564 852H553Q428 848 372 758T312 571H788ZM562 980Q771 980 881 860T992 551Q991 510 988 484T923
458H311Q314 321 388 221T573 98Q605 91 638 91Q726 91 805 134T906 177T937 169T948 145Q948 129 934 102T912 66T896 50Q779 -51 581 -51Q305 -49 168 125Q62 259 62 441Q62 495 71 553Q100 744 226 861T558 980H562Z" />
<glyph unicode="&#xeb;" glyph-name="edieresis" horiz-adv-x="1004" d="M157 1420T292 1420T427 1290Q427 1159 292 1159T157 1290Q157 1420 292 1420ZM627 1420T762 1420T897 1290Q897 1159 762 1159T627 1290Q627 1420 762 1420ZM788 571Q788 669 739 760T564
852H553Q428 848 372 758T312 571H788ZM562 980Q771 980 881 860T992 551Q991 510 988 484T923 458H311Q314 321 388 221T573 98Q605 91 638 91Q726 91 805 134T906 177T937 169T948 145Q948 129 934 102T912 66T896 50Q779 -51 581 -51Q305 -49 168 125Q62 259
62 441Q62 495 71 553Q100 744 226 861T558 980H562Z" />
<glyph unicode="&#xec;" glyph-name="igrave" horiz-adv-x="593" d="M526 1087Q521 1087 115 1239Q54 1261 54 1326Q54 1420 153 1420Q184 1420 209 1402L588 1142Q600 1128 600 1114Q600 1077 557 1077Q546 1077 526 1087ZM442 146Q442 94 492 77T542 20Q542
-20 497 -20H158Q112 -20 112 20Q112 59 162 76T212 146V786Q212 836 162 854T112 911Q112 952 157 952Q219 955 281 972T442 1022V146Z" />
<glyph unicode="&#xed;" glyph-name="iacute" horiz-adv-x="593" d="M128 1087Q108 1077 97 1077Q54 1077 54 1114Q54 1128 66 1142L445 1402Q470 1420 501 1420Q600 1420 600 1326Q600 1261 539 1239Q133 1087 128 1087ZM442 146Q442 94 492 77T542 20Q542 -20
497 -20H158Q112 -20 112 20Q112 59 162 76T212 146V786Q212 836 162 854T112 911Q112 952 157 952Q219 955 281 972T442 1022V146Z" />
<glyph unicode="&#xee;" glyph-name="icircumflex" horiz-adv-x="593" d="M-2 1076L255 1463H400L656 1076H546L327 1275L109 1076H-2ZM442 146Q442 94 492 77T542 20Q542 -20 497 -20H158Q112 -20 112 20Q112 59 162 76T212 146V786Q212 836 162 854T112 911Q112
952 157 952Q219 955 281 972T442 1022V146Z" />
<glyph unicode="&#xef;" glyph-name="idieresis" horiz-adv-x="593" d="M-43 1420T92 1420T227 1290Q227 1159 92 1159T-43 1290Q-43 1420 92 1420ZM427 1420T562 1420T697 1290Q697 1159 562 1159T427 1290Q427 1420 562 1420ZM442 146Q442 94 492 77T542 20Q542
-20 497 -20H158Q112 -20 112 20Q112 59 162 76T212 146V786Q212 836 162 854T112 911Q112 952 157 952Q219 955 281 972T442 1022V146Z" />
<glyph unicode="&#xf0;" glyph-name="eth" horiz-adv-x="1105" d="M586 873H575Q472 873 396 768Q311 651 311 478V474Q311 302 395 176Q476 55 587 50H599Q701 50 777 155Q862 271 863 446Q863 619 780 743T586 873ZM317 1051Q298 1080 289 1095T259 1143Q418
1205 526 1268Q456 1331 333 1397Q302 1415 302 1435Q302 1443 307 1450Q314 1462 326 1484Q343 1514 376 1514Q391 1514 409 1506Q562 1415 651 1344Q760 1416 888 1530Q918 1498 929 1485T965 1448Q847 1333 744 1265Q900 1123 999 924T1101 461V455Q1101 244
954 98Q804 -54 585 -60H572Q365 -60 217 93Q68 247 68 458V461Q69 692 240 850Q263 871 303 885T417 928Q461 944 514 963Q569 983 605 983H609Q731 978 766 958Q752 984 705 1059T612 1182Q497 1116 317 1051Z" />
<glyph unicode="&#xf1;" glyph-name="ntilde" horiz-adv-x="1191" d="M333 1138Q294 1147 292 1177V1180Q292 1201 312 1243L365 1360Q405 1450 500 1450Q594 1450 692 1355Q730 1316 766 1316Q797 1316 831 1345Q865 1373 892 1442Q902 1469 930 1469Q935 1469
941 1468Q975 1459 976 1435V1427Q976 1409 972 1401Q930 1285 885 1226T780 1167Q690 1167 589 1258Q549 1297 513 1297Q486 1297 457 1274L437 1257Q401 1223 373 1161Q361 1138 333 1138ZM780 982Q874 982 957 919Q1086 820 1086 506V146Q1086 94 1136 77T1186
20Q1186 -20 1141 -20H898Q856 -20 856 13V506Q856 718 771 801Q720 851 648 851Q605 851 568 839T498 814T439 791Q416 783 412 781V146Q412 94 462 77T512 20Q512 -20 467 -20H128Q82 -20 82 20Q82 59 132 76T182 146V786Q182 836 132 854T82 911Q82 952 127
952Q189 955 251 972T412 1022V885Q432 892 474 908T583 947T708 976T780 982Z" />
<glyph unicode="&#xf2;" glyph-name="ograve" horiz-adv-x="1107" d="M778 1087Q773 1087 367 1239Q306 1261 306 1326Q306 1420 405 1420Q436 1420 461 1402L840 1142Q852 1128 852 1114Q852 1077 809 1077Q798 1077 778 1087ZM569 869Q466 869 385 760T304 481T386
190T580 63H593Q695 63 775 171T856 450T773 741T580 869H569ZM1095 459Q1095 252 946 107T578 -45H562Q358 -45 210 105T62 462V465Q63 691 233 846Q256 867 296 881T395 916T508 957T599 976H603Q810 968 951 819T1095 465V459Z" />
<glyph unicode="&#xf3;" glyph-name="oacute" horiz-adv-x="1107" d="M380 1087Q360 1077 349 1077Q306 1077 306 1114Q306 1128 318 1142L697 1402Q722 1420 753 1420Q852 1420 852 1326Q852 1261 791 1239Q385 1087 380 1087ZM569 869Q466 869 385 760T304 481T386
190T580 63H593Q695 63 775 171T856 450T773 741T580 869H569ZM1095 459Q1095 252 946 107T578 -45H562Q358 -45 210 105T62 462V465Q63 691 233 846Q256 867 296 881T395 916T508 957T599 976H603Q810 968 951 819T1095 465V459Z" />
<glyph unicode="&#xf4;" glyph-name="ocircumflex" horiz-adv-x="1107" d="M250 1076L507 1463H652L908 1076H798L579 1275L361 1076H250ZM569 869Q466 869 385 760T304 481T386 190T580 63H593Q695 63 775 171T856 450T773 741T580 869H569ZM1095 459Q1095 252
946 107T578 -45H562Q358 -45 210 105T62 462V465Q63 691 233 846Q256 867 296 881T395 916T508 957T599 976H603Q810 968 951 819T1095 465V459Z" />
<glyph unicode="&#xf5;" glyph-name="otilde" horiz-adv-x="1107" d="M278 1138Q239 1147 237 1177V1180Q237 1201 257 1243L310 1360Q350 1450 445 1450Q539 1450 637 1355Q675 1316 711 1316Q742 1316 776 1345Q810 1373 837 1442Q847 1469 875 1469Q880 1469
886 1468Q920 1459 921 1435V1427Q921 1409 917 1401Q875 1285 830 1226T725 1167Q635 1167 534 1258Q494 1297 458 1297Q431 1297 402 1274L382 1257Q346 1223 318 1161Q306 1138 278 1138ZM569 869Q466 869 385 760T304 481T386 190T580 63H593Q695 63 775 171T856
450T773 741T580 869H569ZM1095 459Q1095 252 946 107T578 -45H562Q358 -45 210 105T62 462V465Q63 691 233 846Q256 867 296 881T395 916T508 957T599 976H603Q810 968 951 819T1095 465V459Z" />
<glyph unicode="&#xf6;" glyph-name="odieresis" horiz-adv-x="1107" d="M209 1420T344 1420T479 1290Q479 1159 344 1159T209 1290Q209 1420 344 1420ZM679 1420T814 1420T949 1290Q949 1159 814 1159T679 1290Q679 1420 814 1420ZM569 869Q466 869 385 760T304
481T386 190T580 63H593Q695 63 775 171T856 450T773 741T580 869H569ZM1095 459Q1095 252 946 107T578 -45H562Q358 -45 210 105T62 462V465Q63 691 233 846Q256 867 296 881T395 916T508 957T599 976H603Q810 968 951 819T1095 465V459Z" />
<glyph unicode="&#xf7;" glyph-name="divide" horiz-adv-x="1100" d="M422 463T557 463T692 333Q692 202 557 202T422 333Q422 463 557 463ZM225 704H889Q951 704 951 658V605Q951 559 889 559H225Q163 559 163 605V658Q163 704 225 704ZM422 1060T557 1060T692
930Q692 799 557 799T422 930Q422 1060 557 1060Z" />
<glyph unicode="&#xf8;" glyph-name="oslash" horiz-adv-x="1107" d="M569 869Q466 869 385 760T304 481Q304 384 331 303L775 739Q774 740 773 742Q690 864 580 869H569ZM1095 459Q1095 252 946 106T578 -45H562Q390 -45 257 62L143 -50Q132 -62 116 -62T90 -52L52
-14Q41 -3 41 8Q41 23 54 32L172 148Q62 284 62 462V465Q63 691 233 846Q256 867 296 881Q336 894 395 916T508 957T599 976H603Q776 969 903 864L1022 981Q1032 992 1050 992Q1067 992 1078 981L1115 942Q1125 932 1125 922T1114 902L987 777Q1093 642 1095 465V459ZM387
189Q469 68 580 63H593Q696 64 776 172T856 450Q856 544 830 624L387 189Z" />
<glyph unicode="&#xf9;" glyph-name="ugrave" horiz-adv-x="1239" d="M837 1087Q832 1087 426 1239Q365 1261 365 1326Q365 1420 464 1420Q495 1420 520 1402L899 1142Q911 1128 911 1114Q911 1077 868 1077Q857 1077 837 1087ZM1090 146Q1090 94 1140 77T1190
21Q1190 -20 1144 -20H901Q859 -20 859 13V46Q840 39 797 23T716 -7Q621 -39 520 -49Q504 -50 490 -50Q397 -50 315 11Q185 110 185 425V786Q185 836 135 854T85 911Q85 952 130 952Q192 955 254 972T416 1022V425Q416 212 501 130Q552 80 624 80Q667 80 721 98Q740
104 774 117T831 139Q837 141 848 145L859 149V786Q859 836 809 854T759 911Q759 952 804 952Q866 955 928 972T1090 1022V146Z" />
<glyph unicode="&#xfa;" glyph-name="uacute" horiz-adv-x="1239" d="M439 1087Q419 1077 408 1077Q365 1077 365 1114Q365 1128 377 1142L756 1402Q781 1420 812 1420Q911 1420 911 1326Q911 1261 850 1239Q444 1087 439 1087ZM1090 146Q1090 94 1140 77T1190
21Q1190 -20 1144 -20H901Q859 -20 859 13V46Q840 39 797 23T716 -7Q621 -39 520 -49Q504 -50 490 -50Q397 -50 315 11Q185 110 185 425V786Q185 836 135 854T85 911Q85 952 130 952Q192 955 254 972T416 1022V425Q416 212 501 130Q552 80 624 80Q667 80 721 98Q740
104 774 117T831 139Q837 141 848 145L859 149V786Q859 836 809 854T759 911Q759 952 804 952Q866 955 928 972T1090 1022V146Z" />
<glyph unicode="&#xfb;" glyph-name="ucircumflex" horiz-adv-x="1239" d="M309 1076L566 1463H711L967 1076H857L638 1275L420 1076H309ZM1090 146Q1090 94 1140 77T1190 21Q1190 -20 1144 -20H901Q859 -20 859 13V46Q840 39 797 23T716 -7Q621 -39 520 -49Q504
-50 490 -50Q397 -50 315 11Q185 110 185 425V786Q185 836 135 854T85 911Q85 952 130 952Q192 955 254 972T416 1022V425Q416 212 501 130Q552 80 624 80Q667 80 721 98Q740 104 774 117T831 139Q837 141 848 145L859 149V786Q859 836 809 854T759 911Q759 952
804 952Q866 955 928 972T1090 1022V146Z" />
<glyph unicode="&#xfc;" glyph-name="udieresis" horiz-adv-x="1239" d="M268 1420T403 1420T538 1290Q538 1159 403 1159T268 1290Q268 1420 403 1420ZM738 1420T873 1420T1008 1290Q1008 1159 873 1159T738 1290Q738 1420 873 1420ZM1090 146Q1090 94 1140 77T1190
21Q1190 -20 1144 -20H901Q859 -20 859 13V46Q840 39 797 23T716 -7Q621 -39 520 -49Q504 -50 490 -50Q397 -50 315 11Q185 110 185 425V786Q185 836 135 854T85 911Q85 952 130 952Q192 955 254 972T416 1022V425Q416 212 501 130Q552 80 624 80Q667 80 721 98Q740
104 774 117T831 139Q837 141 848 145L859 149V786Q859 836 809 854T759 911Q759 952 804 952Q866 955 928 972T1090 1022V146Z" />
<glyph unicode="&#xfd;" glyph-name="yacute" horiz-adv-x="1036" d="M333 1087Q313 1077 302 1077Q259 1077 259 1114Q259 1128 271 1142L650 1402Q675 1420 706 1420Q805 1420 805 1326Q805 1261 744 1239Q338 1087 333 1087ZM104 859T73 871T36 899T30 933T68
951H396Q432 951 441 932T450 905Q450 882 429 871T403 849T399 829T404 811L642 229L848 723Q856 741 856 764T832 815L788 868L892 949Q904 962 922 962T956 946L1012 889Q1034 866 1034 841T1023 781T979 681L485 -421Q454 -487 427 -536T345 -586L260 -583Q219
-576 219 -544L212 -411L288 -409Q339 -407 361 -363L517 -39Q521 -39 521 -37Q521 -34 516 -29Q507 -19 502 -5T495 15L168 794Q154 826 129 842Z" />
<glyph unicode="&#xfe;" glyph-name="thorn" horiz-adv-x="1180" d="M1165 572Q1169 531 1169 484Q1169 436 1159 367T1105 229T1018 128T944 82Q862 52 782 22T650 -26T578 -45H572Q504 -42 443 -14V-556Q345 -523 283 -506T158 -486Q112 -486 112 -446Q112 -407
162 -389T213 -320V1257Q213 1308 163 1326T112 1383Q112 1424 158 1424Q220 1427 282 1443T443 1493V876L674 963Q709 975 727 976Q739 977 748 977H756Q767 976 779 976Q933 968 1041 851T1165 572ZM642 76Q653 76 679 85T741 108T804 131T843 155Q900 216 918
296T937 423Q937 469 936 488Q925 626 861 713Q772 835 640 835Q629 835 612 834T572 823T504 795T443 770V162Q475 132 533 105T636 76H642Z" />
<glyph unicode="&#xff;" glyph-name="ydieresis" horiz-adv-x="1036" d="M162 1420T297 1420T432 1290Q432 1159 297 1159T162 1290Q162 1420 297 1420ZM632 1420T767 1420T902 1290Q902 1159 767 1159T632 1290Q632 1420 767 1420ZM104 859T73 871T36 899T30
933T68 951H396Q432 951 441 932T450 905Q450 882 429 871T403 849T399 829T404 811L642 229L848 723Q856 741 856 764T832 815L788 868L892 949Q904 962 922 962T956 946L1012 889Q1034 866 1034 841T1023 781T979 681L485 -421Q454 -487 427 -536T345 -586L260
-583Q219 -576 219 -544L212 -411L288 -409Q339 -407 361 -363L517 -39Q521 -39 521 -37Q521 -34 516 -29Q507 -19 502 -5T495 15L168 794Q154 826 129 842Z" />
</font>
</defs>
</svg>
